<svg xmlns="http://www.w3.org/2000/svg" viewBox="0 0 265.6 217.65"><g id="e4d6deab-bd47-4f63-9b09-c45d4ba2af88" data-name="Calque 2"><path d="M222.21,219.76A14.64,14.64,0,0,1,230.36,230a13.81,13.81,0,0,1,.24,1.54c0,.28.05.57.08.87,0,.58,0,1.19,0,1.82a25.79,25.79,0,0,1-.81,5.33l-.06.24-9,9c2.09-17.64-9.57-18.11-9.57-18.11l10.91-10.91m-.73-3.52-1.39,1.39-10.91,10.91-4.84,4.85,6.84.27a7.08,7.08,0,0,1,4.53,2.55c2.08,2.5,2.83,6.73,2.18,12.22l-1,8.59L223,250.9l9-9,.6-.61.2-.84,0-.18v0a28.05,28.05,0,0,0,.89-5.94v-.07c0-.65,0-1.35-.05-2.07l0-.3c0-.23,0-.45-.07-.68a15.81,15.81,0,0,0-.28-1.81,17.7,17.7,0,0,0-10-12.43l-1.84-.73Z" transform="translate(-82.1 -106.2)" style="fill:#fff"/><path d="M199.24,242.73c14.12,3.15,8.8,18.89,8.8,18.89l-11.47,11.46c2.31-15.58-9.72-18-9.72-18l12.39-12.39m-1-3.29-1.16,1.17L184.73,253l-4,4,5.52,1.09c.91.2,9.14,2.36,7.34,14.58l-1.33,9,6.41-6.42,11.47-11.46.49-.5.23-.66c.12-.36,3-9-.85-15.77-2-3.6-5.44-6-10.14-7l-1.61-.36Z" transform="translate(-82.1 -106.2)" style="fill:#fff"/><path d="M176.09,265.87c10.76,5.6,8.63,19.06,8.63,19.06l-12.88,12.89c1.11-13.37-6.71-21-6.71-21l11-11m-.56-3.67L174,263.75l-11,11-2.16,2.15L163,279c.27.27,6.79,6.9,5.82,18.58l-.68,8.16,5.79-5.79,12.89-12.89.69-.69.15-1c.1-.64,2.31-15.67-10.21-22.19l-1.95-1Z" transform="translate(-82.1 -106.2)" style="fill:#fff"/><path d="M152.46,289.5l0,.07a31.53,31.53,0,0,1,4.63,8.31c3.53,9.81-1.26,15.89-1.26,15.89l-.49.5a.65.65,0,0,1-.45.16,3,3,0,0,1-1.3-.48l2.32-2.32s2-11.69-7.16-15.71l-2.7,2.7a7.35,7.35,0,0,1,.27-3l6.09-6.1m0-4.24-2.12,2.12-6.09,6.1-.54.54-.22.73a9.48,9.48,0,0,0-.28,4.68l1.38,4.94,3.63-3.63,1.08-1.08c4,2.95,4,8.43,3.8,10.59l-1.58,1.58-2.63,2.63,3.12,2a5.76,5.76,0,0,0,2.93,1,3.6,3.6,0,0,0,2.57-1l.49-.5.13-.12.11-.14c.24-.3,5.77-7.52,1.72-18.76a34.65,34.65,0,0,0-5-9.06l-.15-.2h0a2.09,2.09,0,0,0-.2-.22l-2.12-2.12Z" transform="translate(-82.1 -106.2)" style="fill:#fff"/><path d="M230.12,211.85a11.09,11.09,0,0,1,1.42,1.08c2.34,2,6.8,7,7.14,15.88,0,.69,0,1.41,0,2.15l-8.78,8.78a25.05,25.05,0,0,0,.81-5.51c0-.63,0-1.24,0-1.82,0-.3,0-.59-.08-.87a13.81,13.81,0,0,0-.24-1.54,14.67,14.67,0,0,0-8-10.37l7.78-7.78m-.48-3.77L228,209.73l-7.78,7.78-3.07,3.07,3.95,1.78a11.58,11.58,0,0,1,6.32,8.23,10.72,10.72,0,0,1,.19,1.23v.09c0,.14,0,.29,0,.45l0,.31c0,.45,0,1,0,1.53A21.62,21.62,0,0,1,227,239l-2.76,10.65,7.78-7.78,8.78-8.78.82-.82.06-1.16c0-.8,0-1.62,0-2.44-.38-9.82-5.28-15.49-8.17-18a14.52,14.52,0,0,0-1.86-1.39l-2-1.19Z" transform="translate(-82.1 -106.2)" style="fill:#fff"/><path d="M211.3,230.67s11.66.47,9.57,18.11L208,261.62s5.32-15.74-8.8-18.89l12.06-12.06m-1.19-3.06-.93.93-12.06,12.07-3.86,3.86,5.33,1.19c3,.67,5,2,6.2,4.07,2.51,4.44.42,10.87.4,10.93l-4,12,9-8.95L223,250.9l.74-.73.12-1c.87-7.36-.36-13-3.64-16.9a12.92,12.92,0,0,0-8.79-4.56l-1.31-.06Z" transform="translate(-82.1 -106.2)" style="fill:#fff"/><path d="M186.85,255.12s12,2.38,9.72,18l-11.85,11.85s2.13-13.46-8.63-19.06l10.76-10.75m-1-3.25L184.73,253,174,263.75l-2.89,2.9,3.63,1.88c8.66,4.52,7.12,15.48,7,15.94l-1.36,9,6.45-6.43,11.84-11.85.71-.7.14-1c2.15-14.56-7-20.33-12.11-21.34l-1.57-.31Z" transform="translate(-82.1 -106.2)" style="fill:#fff"/><path d="M165.13,276.84s7.82,7.61,6.71,21l-16,15.95s4.79-6.08,1.26-15.89a31.53,31.53,0,0,0-4.63-8.31l0-.07,12.67-12.66m0-4.21L163,274.72l-12.67,12.66-2.12,2.12,2,2a28.29,28.29,0,0,1,4.13,7.42c2.88,8-.65,12.85-.81,13.05l4.5,3.95,16-15.95.78-.78.09-1.1c1.22-14.6-7.25-23-7.61-23.37l-2.12-2.06Z" transform="translate(-82.1 -106.2)" style="fill:#fff"/><path d="M148.8,295.92c9.12,4,7.16,15.71,7.16,15.71l-8,8a7.57,7.57,0,0,1-5.38,2.21,8.22,8.22,0,0,1-5.82-2.45,7.92,7.92,0,0,1-.24-11.2l12.3-12.29m-.45-2.39-1,1-12.3,12.3a9.93,9.93,0,0,0,.24,14,10.18,10.18,0,0,0,7.23,3,9.56,9.56,0,0,0,6.8-2.8l8-8,.45-.45.11-.63c.76-4.58,0-14.2-8.33-17.87l-1.26-.56Z" transform="translate(-82.1 -106.2)" style="fill:#fff"/><path d="M156,311.63l-8,8a8.1,8.1,0,0,1-11.44-11.44l12.3-12.29C157.92,299.94,156,311.63,156,311.63Z" transform="translate(-82.1 -106.2)" style="fill:#1d1d1b"/><path d="M229.85,239.8l-9,9c2.09-17.64-9.57-18.11-9.57-18.11l10.91-10.91A14.64,14.64,0,0,1,230.36,230a13.81,13.81,0,0,1,.24,1.54c0,.28.05.57.08.87,0,.58,0,1.19,0,1.82a25.79,25.79,0,0,1-.81,5.33Z" transform="translate(-82.1 -106.2)" style="fill:#fff;stroke:#1d1d1b;stroke-miterlimit:10;stroke-width:1.39925615392172px"/><path d="M208,261.62l-11.47,11.46c2.31-15.58-9.72-18-9.72-18l12.39-12.39C213.36,245.88,208,261.62,208,261.62Z" transform="translate(-82.1 -106.2)" style="fill:#fff;stroke:#1d1d1b;stroke-miterlimit:10;stroke-width:1.39925615392172px"/><path d="M184.72,284.93l-12.88,12.89c1.11-13.37-6.71-21-6.71-21l11-11C186.85,271.47,184.72,284.93,184.72,284.93Z" transform="translate(-82.1 -106.2)" style="fill:#fff;stroke:#1d1d1b;stroke-miterlimit:10;stroke-width:1.39925615392172px"/><path d="M155.88,313.77l-.49.5c-.5.49-1.75-.32-1.75-.32l2.32-2.32s2-11.69-7.16-15.71l-2.7,2.7a7.35,7.35,0,0,1,.27-3l6.09-6.1,0,.07a31.53,31.53,0,0,1,4.63,8.31C160.67,307.69,155.88,313.77,155.88,313.77Z" transform="translate(-82.1 -106.2)" style="fill:#fff;stroke:#1d1d1b;stroke-miterlimit:10;stroke-width:1.39925615392172px"/><path d="M238.69,231l-8.78,8.78a25.05,25.05,0,0,0,.81-5.51c0-.63,0-1.24,0-1.82,0-.3,0-.59-.08-.87a13.81,13.81,0,0,0-.24-1.54,14.67,14.67,0,0,0-8-10.37l7.78-7.78a11.09,11.09,0,0,1,1.42,1.08c2.34,2,6.8,7,7.14,15.88C238.72,229.5,238.72,230.22,238.69,231Z" transform="translate(-82.1 -106.2)" style="fill:#fff;stroke:#1d1d1b;stroke-miterlimit:10;stroke-width:1.39925615392172px"/><path d="M220.87,248.78,208,261.62s5.32-15.74-8.8-18.89l12.06-12.06S223,231.14,220.87,248.78Z" transform="translate(-82.1 -106.2)" style="fill:#fff;stroke:#1d1d1b;stroke-miterlimit:10;stroke-width:1.39925615392172px"/><path d="M196.57,273.08l-11.85,11.85s2.13-13.46-8.63-19.06l10.76-10.75S198.88,257.5,196.57,273.08Z" transform="translate(-82.1 -106.2)" style="fill:#fff;stroke:#1d1d1b;stroke-miterlimit:10;stroke-width:1.39925615392172px"/><path d="M171.84,297.82l-16,15.95s4.79-6.08,1.26-15.89a31.53,31.53,0,0,0-4.63-8.31l0-.07,12.67-12.66S173,284.45,171.84,297.82Z" transform="translate(-82.1 -106.2)" style="fill:#fff;stroke:#1d1d1b;stroke-miterlimit:10;stroke-width:1.39925615392172px"/><polygon points="71.9 207.95 72.63 205.24 74.48 206.47 73.19 208.47 71.9 207.95" style="fill:#1d1d1b"/><path d="M237.18,228.86c-.31-8.15-4.28-12.77-6.62-14.8L229.35,213l15-15a4.19,4.19,0,0,0,.59-5.12c-12.83-21.63-9.84-48.7,7.29-65.82a52.05,52.05,0,0,1,37.14-15.19,56.45,56.45,0,0,1,25.69,6.26c.89.46,1.79,1,2.66,1.46a12.89,12.89,0,0,1,5.8,7.15l.17.15v.48a4.21,4.21,0,0,1,.13,1.11,8.11,8.11,0,0,1-2.34,6.41,8.21,8.21,0,0,1-5.85,2.39h-.1a8,8,0,0,1-2.15-.32,8.7,8.7,0,0,1-3.9-2.27c-.18-.17-.33-.34-.49-.52a8.81,8.81,0,0,1-1-1.55A39.46,39.46,0,0,0,298,129a69.6,69.6,0,0,0,.27,8.45c.06.62.15,1.24.24,1.86a21.51,21.51,0,0,1,.31,5.23c-.39,3.78-3.13,6.42-6.66,6.42l-.71,0c-2.67-.25-6.06-1.75-6.81-5.13-.27-1.21-.49-2.45-.71-3.65s-.42-2.35-.67-3.51a71.48,71.48,0,0,0-1.93-7.24c-.09-.31-.18-.57-.27-.82l0-.07,0-.06c0-.06,0-.11,0-.16s-.08-.22-.1-.31l-.23-.64A36,36,0,0,0,264,138.78a35,35,0,0,0-6.5,8.89,87.23,87.23,0,0,0,10.24,3.67c.6.16,1.2.29,1.81.43a22,22,0,0,1,5.08,1.61c3.67,1.83,5.32,5.68,3.91,9.17-1,2.31-3.06,4.77-6.13,4.77a5.46,5.46,0,0,1-.79-.06c-1.22-.18-2.45-.41-3.63-.64s-2.38-.46-3.56-.64a69.33,69.33,0,0,0-7.45-.79l-.92,0h-.54l-2.12,0a39,39,0,0,0,5.51,19.66,70,70,0,0,0,7.7-6c.41-.38.8-.77,1.19-1.16a19,19,0,0,1,3.71-3.13,7.34,7.34,0,0,1,3.73-1,6.56,6.56,0,0,1,5.44,2.91c1.46,2.15,2.43,5.53.36,8-.76.9-1.56,1.77-2.34,2.61s-1.4,1.53-2.08,2.32a63.57,63.57,0,0,0-4.11,5.35c-.06.1-.52.77-.52.77a3,3,0,0,1-.24.38l-1.09,1.71a39.93,39.93,0,0,0,22.68,7.14h.44a71,71,0,0,0,.19-9.43c0-.53-.09-1.07-.15-1.61a19.53,19.53,0,0,1-.07-4.9,6.29,6.29,0,0,1,6.15-5.71,7.88,7.88,0,0,1,.95.07c2.46.33,5.56,1.84,6.12,5,.22,1.18.38,2.37.54,3.52s.27,2,.45,3.06c.41,2.34.88,4.44,1.43,6.41a35.35,35.35,0,0,0,8.76-5.89,35.87,35.87,0,0,0,10.7-18.38,54.39,54.39,0,0,0-6.11-.59h-2.3a17.57,17.57,0,0,1-4.2-.39,6.74,6.74,0,0,1-5.42-7.51c.37-2.49,2-5.49,5.21-5.77,1.15-.09,2.32-.14,3.45-.18s2.1-.08,3.15-.16c2.39-.19,4.49-.45,6.38-.79a8.58,8.58,0,0,1-1.53-5.17,8,8,0,0,1,.18-1.55,8.09,8.09,0,0,1,8-6.39h.18c.21,0,.41,0,.61,0h.1l.07,0c.22,0,.43,0,.65.1a4.15,4.15,0,0,1,.61.14,7.91,7.91,0,0,1,2.31,1l.18.1c3.06,1.09,4.24,5.83,4.37,6.38a57.49,57.49,0,0,1,1.06,6,51.92,51.92,0,0,1-51.9,59h0a56.12,56.12,0,0,1-31-9.35,4.35,4.35,0,0,0-2.39-.72,4.2,4.2,0,0,0-3,1.23l-20.17,20.17Zm61.52-39.35a.07.07,0,0,0-.07,0,.24.24,0,0,0,.17.29l1.37.47-.42,1.38a.25.25,0,0,0,.18.25h0c.1,0,.11,0,.11-.05l.44-1.51,1.49.51,1.18,1.05-1.06-1.06a.23.23,0,0,0-.15-.3l-1.37-.46.41-1.39a.27.27,0,0,0-.07-.19.41.41,0,0,0-.13-.08c-.05,0-.12,0-.13.07l-.45,1.48-1.47-.49Zm-23.33-7.32a.22.22,0,0,0,.2.16c.12,0,.14,0,.15-.06a.18.18,0,0,0,0-.16l-.62-1.41,1.41-.59a.07.07,0,0,0,.06-.08l1.36-.75-1.36.62a.33.33,0,0,0-.27-.18l-1.35.55L274.3,179a.27.27,0,0,0-.23-.17l-.1,0a.2.2,0,0,0,0,.21l.63,1.41-1.43.58a.19.19,0,0,0,0,.22.29.29,0,0,0,.24.17l1.37-.57Zm41-13.7h-.05a.22.22,0,0,0,.1.31l1.36.53-.49,1.37a.26.26,0,0,0,.15.26h.09c.06,0,.08,0,.09,0l.53-1.46,1.43.57,1.57.47-1.42-.49a.23.23,0,0,0-.15-.28l-1.39-.54.53-1.39a.25.25,0,0,0-.07-.18.43.43,0,0,0-.09-.06h-.05c-.07,0-.11,0-.13.06l-.53,1.41-1.41-.54ZM269.56,158.3a.27.27,0,0,0-.23.11.4.4,0,0,0,.18.49l1.23.84L269.9,161a.27.27,0,0,0,0,.29,1.1,1.1,0,0,0,.09.14.48.48,0,0,0,.27.1.27.27,0,0,0,.22-.11l.85-1.29,1.26.89a.32.32,0,0,0,.18.06.24.24,0,0,0,.12,0,.32.32,0,0,0,.13-.1.41.41,0,0,0-.17-.48l-1.2-.83.8-1.22a.36.36,0,0,0-.14-.47.38.38,0,0,0-.23-.09.26.26,0,0,0-.22.11l-.84,1.28-1.26-.86A.35.35,0,0,0,269.56,158.3Zm20.16-16a.24.24,0,0,0-.17.07.3.3,0,0,0-.05.08.43.43,0,0,0,.31.51l1.35.41-.33,1.38a.36.36,0,0,0,.13.35.45.45,0,0,0,.17.11h.1a.24.24,0,0,0,.24-.19l.38-1.48,1.48.42h.1a.23.23,0,0,0,.24-.17.42.42,0,0,0-.31-.49l-1.36-.41.34-1.38a.42.42,0,0,0-.3-.46h-.1a.22.22,0,0,0-.23.17l-.36,1.54-1.52-.45Z" transform="translate(-82.1 -106.2)"/><path d="M289.4,113.34a54.69,54.69,0,0,1,25,6.1c.87.44,1.73.91,2.58,1.42a11.25,11.25,0,0,1,5.24,6.68s0,0,0,0a2.83,2.83,0,0,1,.12.91,6.63,6.63,0,0,1-6.69,7.27h-.07a7.08,7.08,0,0,1-1.76-.27,7.23,7.23,0,0,1-3.26-1.89c-.15-.15-.28-.3-.43-.46a7.72,7.72,0,0,1-1-1.66,41.42,41.42,0,0,0-12.6-4.25,78.56,78.56,0,0,0,.23,10.4c.23,2.25.77,4.52.54,6.79-.29,2.86-2.26,5.07-5.16,5.07a5.44,5.44,0,0,1-.57,0c-2.31-.21-4.93-1.46-5.48-3.95s-.86-4.77-1.39-7.16a75.11,75.11,0,0,0-2-7.39c-.1-.31-.19-.6-.3-.88,0-.08-.05-.15-.07-.23a2.47,2.47,0,0,1-.1-.29c-.23-.65-.47-1.3-.7-2A37.41,37.41,0,0,0,263,137.72a36.81,36.81,0,0,0-7.45,10.63l.32.25a99.59,99.59,0,0,0,11.54,4.19c2.22.59,4.52.89,6.61,1.93,2.81,1.4,4.37,4.34,3.19,7.26-.81,2-2.51,3.84-4.74,3.84a3.86,3.86,0,0,1-.58,0c-2.39-.36-4.77-.92-7.18-1.28a72,72,0,0,0-7.6-.81l-.91,0h-.53c-1.24,0-2.47,0-3.69-.09h0a40.77,40.77,0,0,0,6.48,23.21l.53-.18a80.39,80.39,0,0,0,8.72-6.74,28.27,28.27,0,0,1,4.64-4.1,5.86,5.86,0,0,1,3-.84,5,5,0,0,1,4.2,2.27c1.25,1.82,1.93,4.42.45,6.18s-3,3.24-4.41,4.91a68,68,0,0,0-4.21,5.48c-.15.24-.31.46-.47.69l-.11.18a1.88,1.88,0,0,1-.14.24c-.64,1-1.27,2-1.93,3h0a41.21,41.21,0,0,0,24.72,8.26c.61,0,1.23,0,1.84-.05a83.91,83.91,0,0,0,.29-11,29.23,29.23,0,0,1-.24-6.19,4.79,4.79,0,0,1,4.67-4.43,4.71,4.71,0,0,1,.74.06c2.1.28,4.45,1.52,4.85,3.79s.61,4.38,1,6.57.9,4.56,1.53,6.8c.08.26.15.53.24.81,0,.06,0,.13.06.2a2.13,2.13,0,0,1,.07.27s0,.09.05.14a36.77,36.77,0,0,0,10.73-6.86,37.42,37.42,0,0,0,11.49-20.72,63,63,0,0,0-7.86-.85h-2.35a16,16,0,0,1-3.84-.34c-2.75-.67-4.73-3-4.3-5.83.31-2.09,1.58-4.31,3.85-4.5s4.4-.18,6.59-.35a68.29,68.29,0,0,0,6.82-.85l.81-.16.2,0a1.28,1.28,0,0,1,.27-.05l.11,0c-.07-.46-.15-.92-.23-1.39a7.14,7.14,0,0,1-1.74-4.88,6.89,6.89,0,0,1,.15-1.29,6.57,6.57,0,0,1,1.78-3.27,6.65,6.65,0,0,1,4.73-1.93h.15l.52,0h.07c.2,0,.4.05.6.1a4.74,4.74,0,0,1,.49.1,6.76,6.76,0,0,1,1.95.85,3.24,3.24,0,0,1,.35.21s0,0,0,0h0c1.8.48,3.08,3.52,3.5,5.34a55.24,55.24,0,0,1,1,5.86,50.41,50.41,0,0,1-50.41,57.28,55,55,0,0,1-30.2-9.1,5.83,5.83,0,0,0-3.21-1,5.73,5.73,0,0,0-4.05,1.67l-17.75,17.75c-.34-8.87-4.8-13.85-7.14-15.88l13.9-13.9a5.69,5.69,0,0,0,.82-6.95c-12.19-20.55-9.95-47,7.06-64a50.69,50.69,0,0,1,36.08-14.75m.86,27.56a2,2,0,0,0-.54-.08,1.72,1.72,0,0,0-1.27.56,1.54,1.54,0,0,0-.41.75,1.92,1.92,0,0,0,1.33,2.28,1.9,1.9,0,0,0,.57,1.82,2,2,0,0,0,.77.44,1.91,1.91,0,0,0,.52.07,1.74,1.74,0,0,0,1.69-1.31,1.79,1.79,0,0,0,.51.07,1.73,1.73,0,0,0,1.7-1.31,1.92,1.92,0,0,0-1.33-2.28,1.92,1.92,0,0,0-1.35-2.26,1.79,1.79,0,0,0-.51-.07,1.7,1.7,0,0,0-1.68,1.32m-19.65,16.23a1.79,1.79,0,0,0-1.05-.33,1.76,1.76,0,0,0-1.47.77,1.88,1.88,0,0,0,.57,2.56,1.77,1.77,0,0,0-.05,1.89,1.8,1.8,0,0,0,.6.66,1.92,1.92,0,0,0,1.06.33,1.77,1.77,0,0,0,1.47-.78,1.83,1.83,0,0,0,1,.33,1.67,1.67,0,0,0,.84-.22,1.62,1.62,0,0,0,.65-.57,1.88,1.88,0,0,0-.56-2.55,1.91,1.91,0,0,0-1.62-2.88,1.77,1.77,0,0,0-1.48.79m46.39,10a1.87,1.87,0,0,0-.61-.11,1.59,1.59,0,0,0-1.06.4,1.8,1.8,0,0,0-.45.66,1.73,1.73,0,0,0,1,2.16,1.72,1.72,0,0,0,1,2.15,1.63,1.63,0,0,0,.64.13,1.58,1.58,0,0,0,1.5-1.05,1.67,1.67,0,0,0,.62.12,1.58,1.58,0,0,0,1.5-1.05,1.71,1.71,0,0,0-1-2.16,1.68,1.68,0,0,0-.34-1.7,1.7,1.7,0,0,0-1.28-.59,1.61,1.61,0,0,0-1.52,1m-43.66,15.82a1.64,1.64,0,0,0,.65-.13,1.74,1.74,0,0,0,1.45,1.06h.2a1.63,1.63,0,0,0,.59-.11,1.65,1.65,0,0,0,.85-2.23,1.59,1.59,0,0,0,1-1.41,1.68,1.68,0,0,0-.14-.81,1.8,1.8,0,0,0-1.63-1.06,1.67,1.67,0,0,0-.62.12,1.78,1.78,0,0,0-1.6-1.06,1.49,1.49,0,0,0-.65.14,1.63,1.63,0,0,0-.85,2.2,1.65,1.65,0,0,0-.84,2.22,1.78,1.78,0,0,0,1.61,1.06m25.9,5.18a1.7,1.7,0,0,0-.54-.09,1.56,1.56,0,0,0-1.52,1.13,1.74,1.74,0,0,0,1.14,2.12,1.72,1.72,0,0,0,1.13,2.1,1.69,1.69,0,0,0,.53.09,1.56,1.56,0,0,0,1.53-1.14,1.81,1.81,0,0,0,.55.09,1.62,1.62,0,0,0,1.12-.46,1.58,1.58,0,0,0,.4-.67,1.75,1.75,0,0,0-1.13-2.12,1.72,1.72,0,0,0-.45-1.67,2,2,0,0,0-.7-.44,1.88,1.88,0,0,0-.52-.08,1.59,1.59,0,0,0-1.54,1.14m-9.84-77.76v0A53.55,53.55,0,0,0,251.2,126c-17.61,17.6-20.7,45.42-7.52,67.64a2.69,2.69,0,0,1-.36,3.3l-13.9,13.9-2.27,2.27,2.43,2.11c2.15,1.87,5.81,6.14,6.11,13.73l.26,6.86,4.86-4.85,17.74-17.75a2.71,2.71,0,0,1,1.93-.79,2.91,2.91,0,0,1,1.56.47,57.69,57.69,0,0,0,31.85,9.6,53.41,53.41,0,0,0,53.39-60.65,60.11,60.11,0,0,0-1.09-6.17c-.24-1-1.59-6.13-5.24-7.43h0a9.61,9.61,0,0,0-2.73-1.16,6.77,6.77,0,0,0-.69-.16c-.26,0-.5-.08-.7-.1l-.29,0c-.22,0-.45,0-.68,0h-.21a9.61,9.61,0,0,0-6.85,2.81,9.5,9.5,0,0,0-2.59,4.76,9.26,9.26,0,0,0-.22,1.84,10,10,0,0,0,.72,4.05c-1.29.18-2.68.32-4.19.44-1,.08-2,.12-3.09.16s-2.33.09-3.52.19c-3.34.28-6,3.11-6.57,7.05-.64,4.23,2.11,8.09,6.55,9.18a19,19,0,0,0,4.56.43h2.25c1.47.05,2.93.19,4.29.35a34.26,34.26,0,0,1-9.85,16,33.52,33.52,0,0,1-6.76,4.82c-.34-1.41-.65-2.89-.93-4.5-.17-1-.31-1.95-.45-3s-.32-2.38-.54-3.6c-.58-3.24-3.49-5.69-7.41-6.22a8.62,8.62,0,0,0-1.14-.08,7.77,7.77,0,0,0-7.64,7,20.87,20.87,0,0,0,.07,5.26c.06.52.11,1,.14,1.56a61.85,61.85,0,0,1-.09,7.81,38.43,38.43,0,0,1-19.67-6l.32-.48c.09-.13.17-.27.25-.41l0,0,.2-.29.26-.38a61.8,61.8,0,0,1,4-5.21c.64-.75,1.32-1.48,2-2.26s1.59-1.73,2.37-2.66c2.16-2.57,2.05-6.41-.26-9.8a8,8,0,0,0-6.68-3.58,8.86,8.86,0,0,0-4.49,1.26,20.42,20.42,0,0,0-4,3.37c-.37.37-.75.75-1.14,1.11a58.34,58.34,0,0,1-6.2,4.93A37.53,37.53,0,0,1,255,166.62h.5a2.88,2.88,0,0,0,.41,0h.25l.84,0a70.33,70.33,0,0,1,7.25.77c1.17.18,2.31.4,3.52.63s2.43.47,3.68.66a7.19,7.19,0,0,0,1,.07c3.19,0,6.07-2.18,7.51-5.7,1.72-4.24-.23-8.9-4.63-11.08a22.93,22.93,0,0,0-5.41-1.73c-.61-.14-1.19-.27-1.76-.42a76.07,76.07,0,0,1-8.5-3,33.67,33.67,0,0,1,5.44-7.07,34.34,34.34,0,0,1,14.55-8.66c.08.21.15.43.22.66a70.22,70.22,0,0,1,1.9,7.13c.25,1.14.45,2.27.67,3.46s.44,2.47.72,3.72c.92,4.17,4.95,6,8.13,6.29a8.06,8.06,0,0,0,.85,0c4.33,0,7.68-3.19,8.15-7.76a22.6,22.6,0,0,0-.32-5.61c-.09-.62-.17-1.22-.23-1.8a63.15,63.15,0,0,1-.28-6.4,38.42,38.42,0,0,1,7.47,2.8,9.32,9.32,0,0,0,1,1.36v0l0,0c.2.23.37.41.56.6a10.23,10.23,0,0,0,4.58,2.66,9.32,9.32,0,0,0,2.5.37h.13a9.72,9.72,0,0,0,6.91-2.83,9.6,9.6,0,0,0,2.78-7.52,5.48,5.48,0,0,0-.13-1.23l0-.89-.33-.33a14.36,14.36,0,0,0-6.38-7.68c-.89-.53-1.81-1-2.73-1.5a57.91,57.91,0,0,0-26.37-6.43Z" transform="translate(-82.1 -106.2)" style="fill:#fff"/><path d="M301.51,192.31a1.59,1.59,0,0,1-2.06,1.05,1.72,1.72,0,0,1-1.13-2.1,1.74,1.74,0,0,1-1.14-2.12,1.59,1.59,0,0,1,2.06-1A1.61,1.61,0,0,1,301.3,187a2,2,0,0,1,.7.44,1.72,1.72,0,0,1,.45,1.67,1.75,1.75,0,0,1,1.13,2.12,1.58,1.58,0,0,1-.4.67A1.62,1.62,0,0,1,301.51,192.31Z" transform="translate(-82.1 -106.2)" style="fill:#fff"/><path d="M276.23,183.75a1.63,1.63,0,0,1-.79.1,8.82,8.82,0,0,0-3.71-2,1.65,1.65,0,0,1,.84-2.22,1.63,1.63,0,0,1,.85-2.2,1.73,1.73,0,0,1,2.25.92,1.77,1.77,0,0,1,2.25.94,1.68,1.68,0,0,1,.14.81,1.59,1.59,0,0,1-1,1.41A1.65,1.65,0,0,1,276.23,183.75Z" transform="translate(-82.1 -106.2)" style="fill:#fff"/><path d="M273.62,162.34a1.78,1.78,0,0,1-1.88-.11,1.85,1.85,0,0,1-3.13-.21,1.77,1.77,0,0,1,.05-1.89,1.88,1.88,0,0,1-.57-2.56,1033.62,1033.62,0,0,0,5.06-.89,1.85,1.85,0,0,1,.56,2.54,1.88,1.88,0,0,1,.56,2.55A1.62,1.62,0,0,1,273.62,162.34Z" transform="translate(-82.1 -106.2)" style="fill:#fff"/><path d="M319.05,171.44a1.6,1.6,0,0,1-2.14.92,1.72,1.72,0,0,1-1-2.15,1.73,1.73,0,0,1-1-2.16,1.8,1.8,0,0,1,.45-.66,8.62,8.62,0,0,0,3.81-1.21,1.74,1.74,0,0,1,.66.47,1.68,1.68,0,0,1,.34,1.7,1.71,1.71,0,0,1,1,2.16A1.6,1.6,0,0,1,319.05,171.44Z" transform="translate(-82.1 -106.2)" style="fill:#fff"/><path d="M292.92,145.43a1.75,1.75,0,0,1-2.21,1.24,2,2,0,0,1-.77-.44,1.9,1.9,0,0,1-.57-1.82,1.92,1.92,0,0,1-1.33-2.28,1.54,1.54,0,0,1,.41-.75,1.75,1.75,0,0,1,1.81-.48,1.72,1.72,0,0,1,2.19-1.25,1.92,1.92,0,0,1,1.35,2.26,1.92,1.92,0,0,1,1.33,2.28A1.75,1.75,0,0,1,292.92,145.43Z" transform="translate(-82.1 -106.2)" style="fill:#fff"/><path d="M207.68,224.6a25.66,25.66,0,0,1,5.43.74l.25.06,9,9c-1.3-.13-2.52-.2-3.65-.2-14.42,0-15,10.24-15,10.24l-11-11A15.59,15.59,0,0,1,203.36,225c.49-.1,1-.2,1.57-.26l.89-.1c.6,0,1.21-.06,1.86-.06m0-3h0c-.66,0-1.38,0-2.11.08l-.3,0-.7.08a17.24,17.24,0,0,0-1.84.31A18.65,18.65,0,0,0,190,232.36l-.75,1.85,1.41,1.41,11,11,4.75,4.75.37-6.7c.06-.73.93-7.41,12-7.41a32.85,32.85,0,0,1,3.34.19l8.41.87-6-6-9-9-.63-.62-.86-.19-.19,0h0a28.62,28.62,0,0,0-6-.82Z" transform="translate(-82.1 -106.2)" style="fill:#fff"/><path d="M229,246.44a22.66,22.66,0,0,1,6.31.91l11.53,11.53a26.48,26.48,0,0,0-3.53-.25c-12.74,0-14.95,10.44-14.95,10.44l-12.47-12.46c2-8.41,8.23-10.17,13.11-10.17m0-3h0c-8.43,0-14.12,4.43-16,12.47l-.38,1.63,1.18,1.19,12.47,12.46,3.91,3.92,1.14-5.42c.19-.8,2.14-8.06,12-8.06a24.75,24.75,0,0,1,3.13.22l8.79,1.18L249,256.76l-11.53-11.53-.51-.51-.68-.22a25.5,25.5,0,0,0-7.24-1.06Z" transform="translate(-82.1 -106.2)" style="fill:#fff"/><path d="M256.32,270.66a18.3,18.3,0,0,1,2.44.14l13,13c-.74-.05-1.47-.07-2.18-.07a28.35,28.35,0,0,0-19.33,7.24l-11-11c4.33-8.15,12.93-9.22,17.14-9.23m0-3h0c-4.22,0-14.6,1.06-19.79,10.83l-1,2,1.57,1.56,11,11,2.15,2.15,2.12-2.18a25.21,25.21,0,0,1,17.17-6.33c.66,0,1.33,0,2,.07l8,.55-5.67-5.67-13-13-.71-.71-1-.14a20.86,20.86,0,0,0-2.87-.17Z" transform="translate(-82.1 -106.2)" style="fill:#fff"/><path d="M279.08,297.34a15,15,0,0,1,8.7,2.48l.49.5c.5.49-.34,1.78-.34,1.78l-2.34-2.33a16.44,16.44,0,0,0-2.37-.15c-3.69,0-10.72.95-13.78,7.69l2.72,2.72a3.12,3.12,0,0,1-.84.1,9.88,9.88,0,0,1-2.24-.33L263,303.67s.05,0,.07-.06a33.64,33.64,0,0,1,8.55-4.84,21.52,21.52,0,0,1,7.51-1.43m0-3h0a24.35,24.35,0,0,0-8.55,1.62,36.35,36.35,0,0,0-9.28,5.23,1.56,1.56,0,0,0-.2.16h0a2.09,2.09,0,0,0-.22.2l-2.12,2.12,2.12,2.12,6.13,6.13.56.55.75.22a12.87,12.87,0,0,0,3.05.44,5.8,5.8,0,0,0,1.68-.22l4.87-1.42-3.59-3.58-1.09-1.09c2.68-3.61,7.3-4.2,10-4.2.39,0,.73,0,1,0l1.58,1.58,2.61,2.61,2-3.1c1.34-2.05,1.32-4.18,0-5.55l-.5-.49-.13-.13-.14-.11a17.73,17.73,0,0,0-10.55-3.12Z" transform="translate(-82.1 -106.2)" style="fill:#fff"/><path d="M203.77,216.5h.7l8.83,8.83a24.9,24.9,0,0,0-5.62-.74c-.65,0-1.26,0-1.86.06l-.89.1c-.55.06-1.08.16-1.57.26a15.59,15.59,0,0,0-10.71,8.35l-7.82-7.83a11.18,11.18,0,0,1,1.12-1.47,22.79,22.79,0,0,1,16.31-7.53c.49,0,1,0,1.51,0m0-3c-.56,0-1.13,0-1.7.05a25.64,25.64,0,0,0-18.38,8.55,14.43,14.43,0,0,0-1.43,1.89l-1.21,2,1.65,1.66,7.83,7.83,3,3,1.81-3.9A12.43,12.43,0,0,1,204,228a11.77,11.77,0,0,1,1.27-.22h.08l.47,0,.32,0c.46,0,1-.05,1.56-.05a22.16,22.16,0,0,1,4.89.65L223,230.81l-7.59-7.59-8.83-8.83-.84-.84-1.19,0Z" transform="translate(-82.1 -106.2)" style="fill:#fff"/><path d="M218.74,234.23c1.13,0,2.34.07,3.65.2l12.92,12.92a22.66,22.66,0,0,0-6.31-.91c-4.88,0-11.11,1.76-13.11,10.17l-12.13-12.14s.56-10.24,15-10.24m0-3v0h0c-13.65,0-17.73,8.55-18,13.08l-.07,1.33.94,1,12.14,12.14,3.8,3.8,1.24-5.23c1.25-5.29,4.59-7.86,10.19-7.86a19.89,19.89,0,0,1,5.38.76l11.9,3.87-8.85-8.84-12.92-12.92-.75-.75-1.06-.11a39.23,39.23,0,0,0-4-.22Z" transform="translate(-82.1 -106.2)" style="fill:#fff"/><path d="M243.31,258.63a26.48,26.48,0,0,1,3.53.25l11.92,11.92a20.7,20.7,0,0,0-2.44-.14c-4.21,0-12.81,1.07-17.14,9.23l-10.82-10.82s2.21-10.44,14.95-10.44m0-3v0h0c-12,0-16.95,8.39-17.89,12.82l-.33,1.59,1.15,1.15L237.06,282l2.86,2.87,1.91-3.58c3.53-6.64,10.59-7.64,14.49-7.64a19,19,0,0,1,2,.11l8.83,1.2-6.29-6.29L249,256.76l-.72-.72-1-.13a28.5,28.5,0,0,0-3.93-.28Z" transform="translate(-82.1 -106.2)" style="fill:#fff"/><path d="M269.54,283.69c.71,0,1.44,0,2.18.07l16.06,16.06a15,15,0,0,0-8.7-2.48,21.52,21.52,0,0,0-7.51,1.43,33.64,33.64,0,0,0-8.55,4.84s0,0-.07.06l-12.74-12.74a28.35,28.35,0,0,1,19.33-7.24m0-3h0a31.33,31.33,0,0,0-21.48,8.14L246,291l2.09,2.09,12.74,12.74,2.12,2.12,2-2a30.71,30.71,0,0,1,7.69-4.36,18.78,18.78,0,0,1,6.47-1.24A12.16,12.16,0,0,1,286,302.2l3.94-4.5-16.06-16.06-.79-.79-1.12-.08c-.8,0-1.6-.08-2.39-.08Z" transform="translate(-82.1 -106.2)" style="fill:#fff"/><path d="M283.22,299.62a16.44,16.44,0,0,1,2.37.15l8.07,8.07a8.09,8.09,0,0,1-.41,11.44,8.65,8.65,0,0,1-6.09,2.58,7.49,7.49,0,0,1-5.35-2.18l-12.37-12.37c3.06-6.74,10.09-7.69,13.78-7.69m0-2h0c-7.36,0-13.05,3.23-15.6,8.87l-.57,1.26,1,1L280.4,321.1a9.48,9.48,0,0,0,6.76,2.76,10.83,10.83,0,0,0,10.67-10.32,9.47,9.47,0,0,0-2.76-7.12L287,298.35l-.46-.46-.65-.1a18,18,0,0,0-2.67-.17Z" transform="translate(-82.1 -106.2)" style="fill:#fff"/><path d="M285.59,299.77l8.07,8.07a8.4,8.4,0,0,1-11.85,11.84l-12.37-12.37C273.68,298,285.59,299.77,285.59,299.77Z" transform="translate(-82.1 -106.2)" style="fill:#1d1d1b"/><path d="M213.36,225.4l9,9c-18-1.86-18.63,10-18.63,10l-11-11A15.59,15.59,0,0,1,203.36,225c.49-.1,1-.2,1.57-.26l.89-.1c.6,0,1.21-.06,1.86-.06a25.66,25.66,0,0,1,5.43.74Z" transform="translate(-82.1 -106.2)" style="fill:#fff;stroke:#1d1d1b;stroke-miterlimit:10;stroke-width:1.42833395895971px"/><path d="M235.31,247.35l11.53,11.53c-15.87-2.12-18.48,10.19-18.48,10.19l-12.47-12.46C219.32,242.14,235.31,247.35,235.31,247.35Z" transform="translate(-82.1 -106.2)" style="fill:#fff;stroke:#1d1d1b;stroke-miterlimit:10;stroke-width:1.42833395895971px"/><path d="M258.76,270.8l13,13a28.58,28.58,0,0,0-21.51,7.17l-11-11C245.05,268.83,258.76,270.8,258.76,270.8Z" transform="translate(-82.1 -106.2)" style="fill:#fff;stroke:#1d1d1b;stroke-miterlimit:10;stroke-width:1.42833395895971px"/><path d="M287.78,299.82l.49.5c.5.49-.34,1.78-.34,1.78l-2.34-2.33s-11.91-1.82-16.15,7.54l2.72,2.72a7.48,7.48,0,0,1-3.08-.23L263,303.67s.05,0,.07-.06a33.64,33.64,0,0,1,8.55-4.84C281.64,295,287.78,299.82,287.78,299.82Z" transform="translate(-82.1 -106.2)" style="fill:#fff;stroke:#1d1d1b;stroke-miterlimit:10;stroke-width:1.42833395895971px"/><polygon points="205.03 192.97 203.24 195.9 205.83 195.9 206.34 194.44 205.03 192.97" style="fill:#1d1d1b"/><path d="M204.47,216.51l8.83,8.83a24.9,24.9,0,0,0-5.62-.74c-.65,0-1.26,0-1.86.06l-.89.1c-.55.06-1.08.16-1.57.26a15.59,15.59,0,0,0-10.71,8.35l-7.82-7.83a11.18,11.18,0,0,1,1.12-1.47,22.79,22.79,0,0,1,16.31-7.53C203,216.5,203.71,216.48,204.47,216.51Z" transform="translate(-82.1 -106.2)" style="fill:#fff;stroke:#1d1d1b;stroke-miterlimit:10;stroke-width:1.42833395895971px"/><path d="M222.39,234.43l12.92,12.92s-16-5.21-19.42,9.26l-12.13-12.14S204.41,232.57,222.39,234.43Z" transform="translate(-82.1 -106.2)" style="fill:#fff;stroke:#1d1d1b;stroke-miterlimit:10;stroke-width:1.42833395895971px"/><path d="M246.84,258.88l11.92,11.92s-13.71-2-19.58,9.09l-10.82-10.82S231,256.76,246.84,258.88Z" transform="translate(-82.1 -106.2)" style="fill:#fff;stroke:#1d1d1b;stroke-miterlimit:10;stroke-width:1.42833395895971px"/><path d="M271.72,283.76l16.06,16.06s-6.14-4.8-16.21-1.05a33.64,33.64,0,0,0-8.55,4.84s0,0-.07.06l-12.74-12.74A28.58,28.58,0,0,1,271.72,283.76Z" transform="translate(-82.1 -106.2)" style="fill:#fff;stroke:#1d1d1b;stroke-miterlimit:10;stroke-width:1.42833395895971px"/><path d="M170.9,211.15A4,4,0,0,0,168,210a4.59,4.59,0,0,0-2.35.66,58.5,58.5,0,0,1-30.16,8.5,51.71,51.71,0,0,1-36.9-15c-16.4-16.4-19.69-42.12-8.2-64,.48-.91,1-1.83,1.53-2.73a13.59,13.59,0,0,1,7.4-6l0,0h0l.13-.12.41,0a4.79,4.79,0,0,1,1.1-.15h0c.27,0,.53,0,.8,0a8,8,0,0,1,5.72,2.34,8.17,8.17,0,0,1,2.36,6,8.3,8.3,0,0,1-.37,2.2,9.16,9.16,0,0,1-2.34,4l-.52.48a9.65,9.65,0,0,1-1.63,1.12,41.87,41.87,0,0,0-3.8,10.32h.62a67.69,67.69,0,0,0,8-.4c.63-.07,1.27-.17,1.9-.27a26.59,26.59,0,0,1,4.23-.44,10.31,10.31,0,0,1,1.11.05,7.21,7.21,0,0,1,5.05,2.51,6.51,6.51,0,0,1,1.38,4.92c-.3,2.71-1.85,6.16-5.27,7-1.25.3-2.51.54-3.74.78s-2.41.47-3.59.75a76.34,76.34,0,0,0-7.43,2.07c-.31.1-.58.19-.84.29l-.07,0-.07,0-.15.05L102,175l-.72.27a35.36,35.36,0,0,0,9.37,16.81,34.6,34.6,0,0,0,9,6.52A91.36,91.36,0,0,0,123.64,188c.17-.61.32-1.24.47-1.86a22.86,22.86,0,0,1,1.71-5.19,7.84,7.84,0,0,1,6.83-4.56,6.82,6.82,0,0,1,2.51.48c2.54,1,5.29,3.45,4.73,7-.2,1.25-.46,2.5-.71,3.71s-.5,2.44-.7,3.65a75.77,75.77,0,0,0-.93,7.62c0,.28,0,.61-.05.94a.54.54,0,0,1,0,.18c0,.13,0,.25,0,.38,0,.71,0,1.43-.08,2.15a40.82,40.82,0,0,0,20.24-6,68.3,68.3,0,0,0-6-7.79c-.38-.41-.78-.8-1.17-1.19a18.76,18.76,0,0,1-3.15-3.76,6.91,6.91,0,0,1,2-9.32,8.75,8.75,0,0,1,4.78-1.64,5.15,5.15,0,0,1,3.36,1.17c.91.76,1.78,1.57,2.63,2.35s1.53,1.41,2.33,2.09a62.39,62.39,0,0,0,5.4,4.11l.78.52a3.14,3.14,0,0,1,.39.24l1.75,1.11a41.66,41.66,0,0,0,7.67-23.8c-1.92-.1-3.88-.19-5.81-.19-1.37,0-2.62.05-3.81.14-.54,0-1.09.11-1.64.17a28.05,28.05,0,0,1-3.35.26,12.29,12.29,0,0,1-1.65-.1,6.73,6.73,0,0,1-4.58-2.54,6,6,0,0,1-1.09-4.64c.37-2.49,1.94-5.64,5.14-6.25,1.21-.24,2.42-.43,3.6-.6s2.09-.32,3.13-.51c2.43-.47,4.61-1,6.66-1.58a34.59,34.59,0,0,0-5.91-8.9,35.17,35.17,0,0,0-18.65-10.66,57,57,0,0,0-.71,6.34q0,.84,0,1.68a20.11,20.11,0,0,1-.47,4.94,7.1,7.1,0,0,1-6.74,5.65,7.26,7.26,0,0,1-.93-.06c-2.74-.37-5.61-2.14-5.83-5.25-.08-1.18-.11-2.37-.14-3.52s0-2.14-.11-3.21c-.16-2.44-.39-4.57-.71-6.5a9,9,0,0,1-5.15,1.65h-.14a8.22,8.22,0,0,1-1.58-.17,7.93,7.93,0,0,1-4.08-2.17,8.07,8.07,0,0,1-2.34-6.07c0-.23,0-.43,0-.62v-.17q0-.33.12-.66a6.4,6.4,0,0,1,.14-.63,8.89,8.89,0,0,1,1-2.36l.09-.15c1-3.08,6-4.4,6.54-4.54a57.62,57.62,0,0,1,6.15-1.16,56.35,56.35,0,0,1,7.66-.53,51.79,51.79,0,0,1,40,18.47c14.94,18,15.66,45.12,1.75,66a4.36,4.36,0,0,0,.42,5.51l20.23,20.23-3.36.18a21.29,21.29,0,0,0-15.26,7L186,226.26ZM130.79,183a.52.52,0,0,0-.41.23.44.44,0,0,0-.1.33.24.24,0,0,0,.1.15l1.29.84-.88,1.27a.46.46,0,0,0-.08.32.24.24,0,0,0,.1.15.27.27,0,0,0,.13,0,.55.55,0,0,0,.43-.24l.84-1.22,1.23.83a.25.25,0,0,0,.12,0,.45.45,0,0,0,.21-.06.77.77,0,0,0,.17-.13.52.52,0,0,0,.11-.38A.19.19,0,0,0,134,185l-1.31-.85.91-1.27a.35.35,0,0,0,.05-.35.38.38,0,0,0-.09-.12l-.12,0a.55.55,0,0,0-.43.25l-.83,1.18-1.21-.79A.32.32,0,0,0,130.79,183Zm23.18-.91s.09,0,.11,0l.13,0a.36.36,0,0,0,.21-.39l-.55-1.35,1.32-.59a.35.35,0,0,0,.23-.27c0-.12,0-.16-.11-.16a.31.31,0,0,0-.13,0l-1.43.65-.58-1.45h0l-.11-.05a.25.25,0,0,0-.12,0,.38.38,0,0,0-.19.39l.52,1.33-1.3.59a.33.33,0,0,0-.21.36l.11.08a.27.27,0,0,0,.12,0l1.44-.65ZM114,163a.53.53,0,0,0-.48.38.3.3,0,0,0,0,.25.16.16,0,0,0,.13.08l1.57.36-.47,1.55a.26.26,0,0,0,0,.29l.16.06a.57.57,0,0,0,.51-.39l.42-1.32,1.35.31h0a.51.51,0,0,0,.39-.17.52.52,0,0,0,.13-.21.28.28,0,0,0,0-.24.26.26,0,0,0-.14-.11l-1.53-.37.45-1.51a.29.29,0,0,0,0-.26.17.17,0,0,0-.12-.09h0a.57.57,0,0,0-.56.39l-.42,1.32L114,163Zm48.33-9.54a.38.38,0,0,0-.22.1.55.55,0,0,0-.11.17.34.34,0,0,0,0,.11l1.53.43-.48,1.53c0,.09,0,.13,0,.14h0a.38.38,0,0,0,.35-.24l.47-1.33,1.36.39a.34.34,0,0,0,.32-.24c0-.06,0-.11,0-.13L164,154l.5-1.54c0-.06,0-.11,0-.13h-.05a.35.35,0,0,0-.33.22l-.46,1.33-1.36-.38Zm-21.08-17.8a.33.33,0,0,0-.21.1.32.32,0,0,0-.1.13.24.24,0,0,0,0,.15l1.45.53-.53,1.47a.24.24,0,0,0,0,.14h.1a.29.29,0,0,0,.28-.18l.53-1.32,1.35.46h0a.37.37,0,0,0,.33-.21c0-.1,0-.15,0-.17l-1.49-.52.56-1.49a.17.17,0,0,0,0-.14h-.07a.3.3,0,0,0-.3.2l-.55,1.35-1.36-.5Z" transform="translate(-82.1 -106.2)"/><path d="M143.26,109.2a50,50,0,0,1,38.89,17.93c14.73,17.75,15.07,44.07,1.65,64.16a5.86,5.86,0,0,0,.61,7.4l17.85,17.85A22.79,22.79,0,0,0,186,224.07l-14-14a5.58,5.58,0,0,0-4-1.61,6.11,6.11,0,0,0-3.13.88,57,57,0,0,1-29.38,8.28A50.23,50.23,0,0,1,99.66,203.1c-16.31-16.31-18.79-41.58-7.93-62.24.47-.89,1-1.78,1.49-2.66a12,12,0,0,1,6.89-5.45h0a3.76,3.76,0,0,1,.86-.14h.08c.24,0,.49,0,.74,0a6.57,6.57,0,0,1,4.66,1.9,6.66,6.66,0,0,1,1.92,4.93,6.92,6.92,0,0,1-.3,1.8,7.56,7.56,0,0,1-2,3.36c-.15.16-.31.29-.48.44a7.59,7.59,0,0,1-1.7,1.1A43.26,43.26,0,0,0,99.41,159l2.45,0a70.24,70.24,0,0,0,8.18-.41,51.89,51.89,0,0,1,5.95-.7c.33,0,.66,0,1,0,3.1.27,5.43,2.49,5.07,5.78-.26,2.36-1.58,5.06-4.12,5.65s-4.89,1-7.33,1.53a76.69,76.69,0,0,0-7.58,2.11c-.31.1-.61.21-.9.32l-.23.08-.3.1-2,.74a36.87,36.87,0,0,0,10.06,18.83,36.19,36.19,0,0,0,10.75,7.45l.25-.34a101.21,101.21,0,0,0,4.45-11.83c.63-2.28,1-4.63,2.08-6.78a6.35,6.35,0,0,1,5.49-3.74,5.25,5.25,0,0,1,2,.38c2.16.86,4.2,2.8,3.8,5.36s-1,4.9-1.41,7.36a72.88,72.88,0,0,0-.94,7.77c0,.3,0,.61-.06.93a1.77,1.77,0,0,1,0,.23,1.67,1.67,0,0,1,0,.31c0,1.26-.09,2.52-.14,3.77h.67a42.54,42.54,0,0,0,23.12-7l-.18-.54a76.87,76.87,0,0,0-6.75-8.8,27.75,27.75,0,0,1-4.11-4.68,5.37,5.37,0,0,1,1.56-7.33,7.2,7.2,0,0,1,3.92-1.37,3.66,3.66,0,0,1,2.4.82c1.69,1.42,3.26,3,4.95,4.43a62.93,62.93,0,0,0,5.53,4.21c.24.16.46.32.7.47l.18.12a1,1,0,0,1,.24.14c1,.64,2,1.27,3,1.92h0a43,43,0,0,0,8.78-27.24c-2.43-.13-4.85-.27-7.29-.27-1.3,0-2.61,0-3.93.14-1.62.14-3.25.43-4.87.43a11.76,11.76,0,0,1-1.45-.09c-2.81-.36-4.84-2.48-4.39-5.46.32-2.15,1.63-4.57,3.95-5s4.48-.69,6.72-1.11a69.69,69.69,0,0,0,7-1.66l.84-.25.2-.07a2.29,2.29,0,0,1,.28-.08l.14,0a36.19,36.19,0,0,0-6.84-10.86,36.86,36.86,0,0,0-21-11.42,64.19,64.19,0,0,0-1,8,29.9,29.9,0,0,1-.45,6.32,5.65,5.65,0,0,1-5.29,4.52,4.56,4.56,0,0,1-.73,0c-2.12-.28-4.37-1.55-4.53-3.86s-.11-4.49-.26-6.73a67.55,67.55,0,0,0-.77-6.94c0-.27-.09-.55-.15-.82,0-.07,0-.13,0-.21s0-.19-.05-.28,0-.08,0-.11l-1.42.26a7.55,7.55,0,0,1-4.9,1.85h-.12a6.24,6.24,0,0,1-1.3-.14,6.36,6.36,0,0,1-3.32-1.77,6.59,6.59,0,0,1-1.9-4.94l0-.54s0-.05,0-.07a4.31,4.31,0,0,1,.1-.61,3.14,3.14,0,0,1,.12-.51,6.74,6.74,0,0,1,.89-2,3.48,3.48,0,0,1,.22-.36l0,0a0,0,0,0,0,0,0c.52-1.85,3.64-3.2,5.5-3.65a58.52,58.52,0,0,1,6-1.14,55.12,55.12,0,0,1,7.46-.51m-1.51,25.08a1.71,1.71,0,0,0-.54-.1,1.8,1.8,0,0,0-1.2.48,1.78,1.78,0,0,0-.49.68,1.62,1.62,0,0,0,.91,2.17,1.6,1.6,0,0,0,.93,2.14,1.7,1.7,0,0,0,.54.09,1.84,1.84,0,0,0,1.68-1.15,1.81,1.81,0,0,0,2.22-1.07,1.61,1.61,0,0,0-.91-2.17,1.6,1.6,0,0,0-.92-2.15,1.65,1.65,0,0,0-.54-.09,1.82,1.82,0,0,0-1.68,1.17m21,17.76a1.72,1.72,0,0,0-.44-.06,1.85,1.85,0,0,0-1.28.54,2,2,0,0,0-.46.71,1.61,1.61,0,0,0,1,2.1,1.57,1.57,0,0,0,1,2.08,1.77,1.77,0,0,0,.46.07,1.87,1.87,0,0,0,1.72-1.26,1.61,1.61,0,0,0,.44.06A1.87,1.87,0,0,0,167,155a1.6,1.6,0,0,0-1-2.1,1.59,1.59,0,0,0-.35-1.69,1.49,1.49,0,0,0-.67-.4,1.74,1.74,0,0,0-.45-.06,1.85,1.85,0,0,0-1.73,1.25m-48.37,9.53a1.37,1.37,0,0,0-.4,0A2,2,0,0,0,112,163a1.72,1.72,0,0,0,1.25,2.23,1.77,1.77,0,0,0,.45,1.84,1.75,1.75,0,0,0,.77.41,2,2,0,0,0,.41,0,2.07,2.07,0,0,0,1.94-1.44,1.83,1.83,0,0,0,.4,0,2,2,0,0,0,1.46-.66,2.08,2.08,0,0,0,.46-.79,1.74,1.74,0,0,0-1.23-2.24,1.75,1.75,0,0,0-1.24-2.24,2,2,0,0,0-.42,0,2.08,2.08,0,0,0-1.93,1.45m37.47,21.27a1.8,1.8,0,0,0,.74-.16,1.59,1.59,0,0,0,1.51,1,1.88,1.88,0,0,0,.75-.16,1.85,1.85,0,0,0,1-2.33,1.84,1.84,0,0,0,1.1-1.49,1.58,1.58,0,0,0-.09-.81,1.6,1.6,0,0,0-1.51-1,1.68,1.68,0,0,0-.75.17,1.56,1.56,0,0,0-1.42-1H153a1.71,1.71,0,0,0-.72.16,1.86,1.86,0,0,0-1,2.31,1.83,1.83,0,0,0-1,2.31,1.57,1.57,0,0,0,1.5,1m-20.09-1a1.8,1.8,0,0,0-1-.27,2,2,0,0,0-1.65.89,1.81,1.81,0,0,0,.42,2.58,1.82,1.82,0,0,0,.41,2.57,1.87,1.87,0,0,0,1,.27,2,2,0,0,0,1.66-.89,1.67,1.67,0,0,0,1,.29,1.92,1.92,0,0,0,1-.27,1.89,1.89,0,0,0,.67-.62,1.81,1.81,0,0,0-.42-2.58,1.84,1.84,0,0,0-.42-2.58,1.84,1.84,0,0,0-1-.27,2.06,2.06,0,0,0-1.66.88m11.52-75.61a57.68,57.68,0,0,0-7.86.54,63.4,63.4,0,0,0-6.31,1.19c-1.05.26-6.19,1.7-7.54,5.37h0a10,10,0,0,0-1.21,2.76,7.25,7.25,0,0,0-.17.71c0,.26-.09.5-.12.71a1.84,1.84,0,0,0,0,.28,5.37,5.37,0,0,0,0,.7,9.49,9.49,0,0,0,7.61,9.77,10.4,10.4,0,0,0,1.87.19h.15a10.17,10.17,0,0,0,4-.8c.16,1.31.29,2.71.39,4.25.06,1,.09,2.05.12,3.15s0,2.37.14,3.58c.23,3.43,3.1,6.09,7.12,6.64a8.47,8.47,0,0,0,1.13.07,8.58,8.58,0,0,0,8.19-6.77,22,22,0,0,0,.52-5.3c0-.55,0-1.09,0-1.64.07-1.56.25-3.12.45-4.56A33.71,33.71,0,0,1,168,136.88a32.85,32.85,0,0,1,4.86,6.93c-1.5.38-3.08.74-4.79,1.06-1,.19-2,.34-3.07.5s-2.43.37-3.68.62c-3.95.76-5.88,4.52-6.32,7.51a7.54,7.54,0,0,0,1.37,5.75,8.22,8.22,0,0,0,5.6,3.12,13.18,13.18,0,0,0,1.83.12,30.46,30.46,0,0,0,3.53-.27l1.59-.17c1.14-.09,2.35-.13,3.68-.13s2.84.05,4.28.12a40.11,40.11,0,0,1-6.57,20.32l-.53-.34c-.14-.09-.28-.18-.43-.26l0,0-.29-.19-.39-.26a62.1,62.1,0,0,1-5.25-4c-.76-.65-1.5-1.33-2.28-2.05s-1.74-1.6-2.68-2.39a6.6,6.6,0,0,0-4.32-1.52,10.11,10.11,0,0,0-5.63,1.9A8.39,8.39,0,0,0,146,184.53a20.62,20.62,0,0,0,3.39,4.07c.38.38.76.75,1.12,1.14a56.61,56.61,0,0,1,5,6.31A39.38,39.38,0,0,1,139,200.92l0-.49c0-.14,0-.28,0-.41a1.13,1.13,0,0,0,0-.26c0-.29,0-.58.05-.86a71.29,71.29,0,0,1,.91-7.42c.19-1.2.43-2.37.69-3.61s.51-2.49.72-3.76c.57-3.6-1.7-7.06-5.64-8.64a8.51,8.51,0,0,0-3.08-.59,9.34,9.34,0,0,0-8.17,5.38,23.82,23.82,0,0,0-1.83,5.52c-.15.63-.3,1.23-.46,1.81a79.62,79.62,0,0,1-3.24,8.9,33.42,33.42,0,0,1-7.2-5.49,33.8,33.8,0,0,1-8.64-14.8l.09,0c.23-.09.48-.17.73-.25a72.63,72.63,0,0,1,7.33-2c1.17-.27,2.32-.5,3.54-.73s2.53-.5,3.81-.8c4.18-1,6.06-5.05,6.41-8.25a8.06,8.06,0,0,0-1.71-6,8.76,8.76,0,0,0-6.07-3.06c-.41,0-.82-.05-1.25-.05a28.66,28.66,0,0,0-4.46.45c-.65.11-1.25.2-1.85.27a60.22,60.22,0,0,1-6.52.38,40.29,40.29,0,0,1,3-7.74,10.21,10.21,0,0,0,1.42-1l0,0h0l.62-.57A10.72,10.72,0,0,0,111,142a10.54,10.54,0,0,0,.42-2.53,9.68,9.68,0,0,0-2.8-7.16,9.48,9.48,0,0,0-6.78-2.78l-.87,0a6.49,6.49,0,0,0-1.24.16l-.87,0-.32.32a15.16,15.16,0,0,0-7.88,6.56c-.55.91-1.08,1.86-1.57,2.8-11.8,22.46-8.4,48.89,8.46,65.75a53.19,53.19,0,0,0,38,15.41,60,60,0,0,0,30.93-8.71,3.1,3.1,0,0,1,1.58-.45,2.53,2.53,0,0,1,1.83.74l14,14,2.27,2.27,2.11-2.42a19.78,19.78,0,0,1,14.21-6.5l6.72-.36-4.76-4.76-17.85-17.85a2.87,2.87,0,0,1-.23-3.62c14.27-21.37,13.52-49.23-1.84-67.73a53.27,53.27,0,0,0-41.2-19Z" transform="translate(-82.1 -106.2)" style="fill:#fff"/><path d="M165.93,152.94a1.6,1.6,0,0,1,1,2.1,1.82,1.82,0,0,1-2.16,1.18,1.83,1.83,0,0,1-2.18,1.19,1.57,1.57,0,0,1-1-2.08,1.61,1.61,0,0,1-1-2.1,2,2,0,0,1,.46-.71,1.78,1.78,0,0,1,1.72-.48,1.83,1.83,0,0,1,2.18-1.19,1.49,1.49,0,0,1,.67.4A1.59,1.59,0,0,1,165.93,152.94Z" transform="translate(-82.1 -106.2)" style="fill:#fff"/><path d="M156.82,178.88a1.58,1.58,0,0,1,.09.81,1.84,1.84,0,0,1-1.1,1.49,1.85,1.85,0,0,1-1,2.33,1.66,1.66,0,0,1-2.26-.83,1.63,1.63,0,0,1-2.24-.84,1.83,1.83,0,0,1,1-2.31,1.86,1.86,0,0,1,1-2.31,1.81,1.81,0,0,1,.84-.15,1.56,1.56,0,0,1,1.42,1A1.65,1.65,0,0,1,156.82,178.88Z" transform="translate(-82.1 -106.2)" style="fill:#fff"/><path d="M134.93,181.86a1.81,1.81,0,0,1-.15,1.92,1.81,1.81,0,0,1,.42,2.58,1.89,1.89,0,0,1-.67.62,1.8,1.8,0,0,1-1.93,0,2,2,0,0,1-2.63.62,1.82,1.82,0,0,1-.41-2.57,1.81,1.81,0,0,1-.42-2.58,1.93,1.93,0,0,1,2.6-.62,2,2,0,0,1,2.62-.61A1.8,1.8,0,0,1,134.93,181.86Z" transform="translate(-82.1 -106.2)" style="fill:#fff"/><path d="M144.89,135.35a1.61,1.61,0,0,1,.91,2.17,1.83,1.83,0,0,1-2.22,1.07,1.8,1.8,0,0,1-2.22,1.06,1.6,1.6,0,0,1-.93-2.14,1.62,1.62,0,0,1-.91-2.17,1.78,1.78,0,0,1,.49-.68,1.72,1.72,0,0,1,1.74-.38A1.8,1.8,0,0,1,144,133.2,1.6,1.6,0,0,1,144.89,135.35Z" transform="translate(-82.1 -106.2)" style="fill:#fff"/><path d="M118,162.41a1.74,1.74,0,0,1,1.23,2.24,2.08,2.08,0,0,1-.46.79,2,2,0,0,1-1.86.61,2,2,0,0,1-2.35,1.4,1.75,1.75,0,0,1-.77-.41,1.77,1.77,0,0,1-.45-1.84A1.72,1.72,0,0,1,112,163a2,2,0,0,1,2.32-1.4,2,2,0,0,1,2.35-1.4A1.75,1.75,0,0,1,118,162.41Z" transform="translate(-82.1 -106.2)" style="fill:#fff"/></g><g id="a51a5e95-09f3-432a-8de4-4fca9ba0d547" data-name="Calque 1"><path d="M244.66,288.9c-.54,7-2.91,12.66-6.53,16.89-5.43,6.34-13.71,9.52-23,9.52-9.06,0-17.17-3-22.59-9.09-3.85-4.28-6.35-10.05-6.92-17.33a55.52,55.52,0,0,0,59,0Z" transform="translate(-82.1 -106.2)" style="fill:none;stroke:#fff;stroke-miterlimit:10;stroke-width:4px"/><path d="M199.78,282.15l-3.58,11.9a55.55,55.55,0,0,1-10.56-5.16c-.08-1-.12-2.1-.12-3.19v-.22a41.74,41.74,0,0,1,1-9.1q2.15,1.29,4.42,2.39c.54.26,1.08.52,1.63.75.34.16.68.31,1,.45A54.18,54.18,0,0,0,199.78,282.15Z" transform="translate(-82.1 -106.2)" style="fill:none;stroke:#fff;stroke-miterlimit:10;stroke-width:4px"/><path d="M203,271.49l-3.2,10.66a54.18,54.18,0,0,1-6.16-2.18c-.35-.14-.69-.29-1-.45-.55-.23-1.09-.49-1.63-.75q-2.28-1.09-4.42-2.39h0a39.16,39.16,0,0,1,3.62-9.84h0l.31-.34.28.17A45,45,0,0,0,203,271.49Z" transform="translate(-82.1 -106.2)" style="fill:none;stroke:#fff;stroke-miterlimit:10;stroke-width:4px"/><path d="M244.78,285.48v.22c0,1.1,0,2.17-.12,3.2a55.57,55.57,0,0,1-10.11,5L231,282c.75-.22,1.51-.46,2.24-.72l1-.34c.39-.13.76-.28,1.14-.43.77-.3,1.54-.61,2.29-.95l.72-.33c.34-.15.68-.3,1-.47q2.28-1.09,4.42-2.39A41.67,41.67,0,0,1,244.78,285.48Z" transform="translate(-82.1 -106.2)" style="fill:none;stroke:#fff;stroke-miterlimit:10;stroke-width:4px"/><path d="M244.66,288.9c-.54,7-2.91,12.66-6.53,16.89-5.43,6.34-13.71,9.52-23,9.52-9.06,0-17.17-3-22.59-9.09-3.85-4.28-6.35-10.05-6.92-17.33a55.52,55.52,0,0,0,59,0Z" transform="translate(-82.1 -106.2)" style="fill:#fff;stroke:#000;stroke-miterlimit:10;stroke-width:1.74934935569763px"/><path d="M262.53,234a39.27,39.27,0,0,1-6.68,21.75A44.76,44.76,0,0,1,242,269l-.29.18a49.2,49.2,0,0,1-12.8,5.45,52.52,52.52,0,0,1-27,.14,49.15,49.15,0,0,1-13.29-5.6l-.31-.19a45.12,45.12,0,0,1-13.85-13.25,39.6,39.6,0,0,1-2.15-3.59A38.62,38.62,0,0,1,167.78,234c0-1.11.05-2.21.14-3.29s.23-2.18.42-3.26c3.51-20.34,23.13-35.92,46.81-35.92s43.31,15.58,46.82,35.92c.19,1.08.32,2.16.42,3.26S262.53,232.87,262.53,234Z" transform="translate(-82.1 -106.2)" style="fill:#fff"/><path d="M243.76,276.37h0q-2.14,1.29-4.42,2.39c-.33.17-.67.32-1,.47l-.72.33c-.75.34-1.52.65-2.29.95-.38.15-.75.3-1.14.43l-1,.34c-.73.26-1.49.5-2.24.72l-3.2-10.64a45.44,45.44,0,0,0,11.77-5l.28-.17.32.34A39,39,0,0,1,243.76,276.37Z" transform="translate(-82.1 -106.2)" style="fill:none;stroke:#fff;stroke-miterlimit:10;stroke-width:4px"/><path d="M244.78,285.48v.22c0,1.1,0,2.17-.12,3.2a55.57,55.57,0,0,1-10.11,5L231,282c.75-.22,1.51-.46,2.24-.72l1-.34c.39-.13.76-.28,1.14-.43.77-.3,1.54-.61,2.29-.95l.72-.33c.34-.15.68-.3,1-.47q2.28-1.09,4.42-2.39A41.67,41.67,0,0,1,244.78,285.48Z" transform="translate(-82.1 -106.2)" style="fill:#fff;stroke:#000;stroke-miterlimit:10;stroke-width:1.74934935569763px"/><path d="M199.78,282.15l-3.58,11.9a55.55,55.55,0,0,1-10.56-5.16c-.08-1-.12-2.1-.12-3.19v-.22a41.74,41.74,0,0,1,1-9.1q2.15,1.29,4.42,2.39c.54.26,1.08.52,1.63.75.34.16.68.31,1,.45A54.18,54.18,0,0,0,199.78,282.15Z" transform="translate(-82.1 -106.2)" style="fill:#fff;stroke:#000;stroke-miterlimit:10;stroke-width:1.74934935569763px"/><path d="M203,271.49l-3.2,10.66a54.18,54.18,0,0,1-6.16-2.18c-.35-.14-.69-.29-1-.45-.55-.23-1.09-.49-1.63-.75q-2.28-1.09-4.42-2.39h0a39.16,39.16,0,0,1,3.62-9.84h0l.31-.34.28.17A45,45,0,0,0,203,271.49Z" transform="translate(-82.1 -106.2)" style="fill:#fff;stroke:#000;stroke-miterlimit:10;stroke-width:1.74934935569763px"/><path d="M215.15,273.05v11.26c-.57,0-1.14,0-1.7,0l-1.06,0c-.25,0-.49,0-.72,0-.39,0-.76,0-1.14-.08a2.38,2.38,0,0,1-.39,0l-1.38-.14c-1-.12-2.1-.27-3.14-.45l-1.05-.2-.82-.16-.64-.14c-.33-.06-.64-.14-1-.22l-1-.25c-.47-.11-.93-.23-1.4-.37l3.2-10.66A47.64,47.64,0,0,0,215.15,273.05Z" transform="translate(-82.1 -106.2)" style="fill:#fff;stroke:#000;stroke-miterlimit:10;stroke-width:1.74934935569763px"/><path d="M243.76,276.37h0q-2.14,1.29-4.42,2.39c-.33.17-.67.32-1,.47l-.72.33c-.75.34-1.52.65-2.29.95-.38.15-.75.3-1.14.43l-1,.34c-.73.26-1.49.5-2.24.72l-3.2-10.64a45.44,45.44,0,0,0,11.77-5l.28-.17.32.34A39,39,0,0,1,243.76,276.37Z" transform="translate(-82.1 -106.2)" style="fill:#fff;stroke:#000;stroke-miterlimit:10;stroke-width:1.74934935569763px"/><path d="M239.82,266.19l-.28.17a45.44,45.44,0,0,1-11.77,5,48.25,48.25,0,0,1-24.79.12,45,45,0,0,1-12.22-5.14l-.28-.17c.19-.19.38-.37.56-.56A42.71,42.71,0,0,0,202.23,271q.42.14.84.24a43.55,43.55,0,0,0,24.61-.13l.39-.11a42.93,42.93,0,0,0,11.2-5.34C239.46,265.81,239.65,266,239.82,266.19Z" transform="translate(-82.1 -106.2)" style="fill:none;stroke:#000;stroke-miterlimit:10;stroke-width:1.74934935569763px"/><path d="M258.72,234a35.63,35.63,0,0,1-4.17,16.7,37.8,37.8,0,0,1-2,3.3,41.28,41.28,0,0,1-12.76,12.21l-.28.17a45.44,45.44,0,0,1-11.77,5,48.25,48.25,0,0,1-24.79.12,45,45,0,0,1-12.22-5.14l-.28-.17A41.6,41.6,0,0,1,177.74,254a38.07,38.07,0,0,1-2-3.31,35.63,35.63,0,0,1-4.17-16.7c0-1,0-2,.13-3s.21-2,.39-3c3.22-18.71,21.27-33,43-33s39.82,14.33,43,33c.18,1,.3,2,.39,3S258.72,233,258.72,234Z" transform="translate(-82.1 -106.2)" style="fill:#fff;stroke:#000;stroke-miterlimit:10;stroke-width:2.48468994793146px"/><line x1="133.05" y1="166.85" x2="133.05" y2="166.71" style="fill:none;stroke:#000;stroke-miterlimit:10;stroke-width:1.65667783347837px"/><path d="M231,282c-.56.16-1.13.33-1.7.48-.21.06-.41.11-.62.15-.46.13-.92.23-1.39.33a.86.86,0,0,1-.23,0c-.55.12-1.11.24-1.67.33l-.27.06-1.67.29-.42.06-1.38.17-.37.05-1.28.12c-.51,0-1,.08-1.52.1l-.23,0c-.48,0-1,0-1.45.06s-1.08,0-1.62,0V273.05a47.88,47.88,0,0,0,12.62-1.68Z" transform="translate(-82.1 -106.2)" style="fill:#fff;stroke:#000;stroke-miterlimit:10;stroke-width:1.65667783347837px"/><path d="M234.55,293.89a55.26,55.26,0,0,1-19.4,3.49V284.31q.81,0,1.62,0c.49,0,1,0,1.45-.06l.23,0c.5,0,1-.06,1.52-.1l1.28-.12.37-.05,1.38-.17.42-.06,1.67-.29.27-.06c.56-.09,1.12-.21,1.67-.33a.86.86,0,0,0,.23,0c.47-.1.93-.2,1.39-.33.21,0,.41-.09.62-.15.57-.15,1.14-.32,1.7-.48Z" transform="translate(-82.1 -106.2)" style="fill:#fff;stroke:#000;stroke-miterlimit:10;stroke-width:1.65667783347837px"/><line x1="145.68" y1="165.17" x2="145.59" y2="164.87" style="fill:none;stroke:#000;stroke-miterlimit:10;stroke-width:1.65667783347837px"/><path d="M215.15,284.31v13.07a55.16,55.16,0,0,1-19-3.33l3.58-11.9c.47.14.93.26,1.4.37l1,.25c.33.08.64.16,1,.22l.64.14.82.16,1.05.2c1,.18,2.09.33,3.14.45l1.38.14a2.38,2.38,0,0,0,.39,0c.38,0,.75.07,1.14.08.23,0,.47,0,.72,0l1.06,0C214,284.3,214.58,284.31,215.15,284.31Z" transform="translate(-82.1 -106.2)" style="fill:#fff;stroke:#000;stroke-miterlimit:10;stroke-width:1.65667783347837px"/><line x1="120.97" y1="165" x2="120.89" y2="165.29" style="fill:none;stroke:#000;stroke-miterlimit:10;stroke-width:1.65667783347837px"/><path d="M243.17,255.08h-1.73a55.29,55.29,0,0,1-7.95-.6,24.61,24.61,0,0,1-2.51-.53,12.66,12.66,0,0,1-6.61-3.64,20.62,20.62,0,0,1-2.39-3.48,49.46,49.46,0,0,1-2.31-4.48,24.13,24.13,0,0,1-.88-2.36c-.09-.27-.15-.54-.22-.82a5.5,5.5,0,0,0-.44-1.37,3,3,0,0,0-1.86-1.34,5.21,5.21,0,0,0-1.15-.19,5.31,5.31,0,0,0-1.09.19,3.09,3.09,0,0,0-1.86,1.34,5.34,5.34,0,0,0-.43,1.35c-.07.29-.13.57-.22.84-.24.75-.54,1.55-.89,2.36a42.37,42.37,0,0,1-2.31,4.48,21.6,21.6,0,0,1-2.38,3.48,12.73,12.73,0,0,1-6.62,3.64,24.61,24.61,0,0,1-2.51.53,55.26,55.26,0,0,1-7.94.6h-1.74a37.56,37.56,0,0,1-6.29-.43c-5-.85-8.77-3.14-10.75-6.44a21.38,21.38,0,0,1-1.84-4.59l-.19-.61c-.42-1.35-.89-2.88-1.44-4.35A4.87,4.87,0,0,0,165,236.2a2.41,2.41,0,0,1-.85-1.23l-.28-4.09a1.32,1.32,0,0,1,.38-.95,2.79,2.79,0,0,1,1.61-1c.68-.14,1.37-.26,2.07-.38a117.1,117.1,0,0,1,12.1-1.43l2.3-.14c2.25-.11,4.09-.16,5.81-.16a54.39,54.39,0,0,1,10.28.86c1.33.26,2.65.55,4,.84a50.28,50.28,0,0,0,10.78,1.59h4a50.28,50.28,0,0,0,10.78-1.59c1.32-.29,2.64-.58,4-.84a54.46,54.46,0,0,1,10.28-.86c1.72,0,3.57,0,5.81.16l2.29.14a117.63,117.63,0,0,1,12.11,1.43c.8.13,1.59.28,2.36.44a2.14,2.14,0,0,1,1.64,1.41,1.27,1.27,0,0,1,.06.46l-.27,4a2.31,2.31,0,0,1-.86,1.33,4.9,4.9,0,0,0-1.64,2.47c-.55,1.45-1,2.94-1.43,4.34l-.22.68a21.74,21.74,0,0,1-1.82,4.51c-2,3.31-5.8,5.6-10.75,6.45A37.43,37.43,0,0,1,243.17,255.08Zm-2.11-24.83a54.4,54.4,0,0,0-5.77.28,29.84,29.84,0,0,0-10,2.49,9.72,9.72,0,0,0-2.82,1.82,4,4,0,0,0-.7,2.83,16.89,16.89,0,0,0,2.42,7,11,11,0,0,0,5.64,5,35.88,35.88,0,0,0,12.56,2.25,35.25,35.25,0,0,0,8.9-1.13c2.57-.68,5.9-2.06,7.1-4.83a9.56,9.56,0,0,0,.61-2.36c.41-2.52.73-5.07.94-7.58.17-2.08-.05-3.52-1.72-4.26a3.39,3.39,0,0,0-.76-.18l-.13,0a76.93,76.93,0,0,0-9.84-1.08C245,230.32,242.92,230.25,241.06,230.25Zm-51.82,0c-1.86,0-3.9.07-6.41.23a76.93,76.93,0,0,0-9.84,1.08l-.16,0a4.22,4.22,0,0,0-.74.19c-1.66.73-1.88,2.17-1.71,4.25.21,2.54.53,5.09.94,7.59a9.77,9.77,0,0,0,.61,2.35c1.2,2.77,4.52,4.15,7.1,4.83a35.25,35.25,0,0,0,8.9,1.13,35.88,35.88,0,0,0,12.56-2.25,10.89,10.89,0,0,0,5.64-5,16.85,16.85,0,0,0,2.42-7,4,4,0,0,0-.7-2.83A9.7,9.7,0,0,0,205,233a29.84,29.84,0,0,0-10-2.49A54.47,54.47,0,0,0,189.24,230.25Z" transform="translate(-82.1 -106.2)"/><path d="M242.18,227.29c1.94,0,3.87.06,5.78.16l2.3.14A113.93,113.93,0,0,1,262.32,229c.79.13,1.57.28,2.34.44a1.72,1.72,0,0,1,1.32,1.12.73.73,0,0,1,0,.28l-.26,4a2.08,2.08,0,0,1-.66,1,5.29,5.29,0,0,0-1.82,2.67c-.54,1.44-1,2.9-1.44,4.37a24.65,24.65,0,0,1-2,5.11c-2.21,3.68-6.36,5.54-10.45,6.24a36.88,36.88,0,0,1-6.22.42h-1.73a54.78,54.78,0,0,1-7.88-.59c-.83-.14-1.66-.31-2.47-.52a12.51,12.51,0,0,1-6.4-3.51,20.67,20.67,0,0,1-2.34-3.42,45.14,45.14,0,0,1-2.28-4.43,22.51,22.51,0,0,1-.88-2.32,12.66,12.66,0,0,0-.69-2.27,3.43,3.43,0,0,0-2.11-1.54,3.77,3.77,0,0,0-2.48,0,3.43,3.43,0,0,0-2.11,1.54,12.66,12.66,0,0,0-.69,2.27,22.43,22.43,0,0,1-.87,2.32A43.13,43.13,0,0,1,208,246.6a21.25,21.25,0,0,1-2.33,3.42,12.58,12.58,0,0,1-6.41,3.51c-.81.21-1.64.38-2.47.52a54.57,54.57,0,0,1-7.88.59h-1.73a37,37,0,0,1-6.22-.42c-4.08-.7-8.25-2.56-10.45-6.24a24.07,24.07,0,0,1-2-5.11c-.46-1.47-.91-2.93-1.45-4.37a5.27,5.27,0,0,0-1.81-2.67,2.05,2.05,0,0,1-.67-1l-.26-4a.94.94,0,0,1,.28-.65,2.37,2.37,0,0,1,1.36-.81c.68-.14,1.37-.26,2.07-.38a113.44,113.44,0,0,1,12-1.42l2.29-.14c1.92-.1,3.86-.16,5.79-.16a54.2,54.2,0,0,1,10.19.85c5,1,9.74,2.42,14.84,2.44h4c5.1,0,9.88-1.49,14.83-2.44a54.38,54.38,0,0,1,10.2-.85m.19,25.07a35.56,35.56,0,0,0,9-1.15c2.83-.74,6.14-2.2,7.38-5.07a9.83,9.83,0,0,0,.64-2.45c.42-2.53.73-5.07,1-7.62.16-1.95.06-3.79-2-4.69a4.84,4.84,0,0,0-1-.24,78.26,78.26,0,0,0-9.9-1.09c-2.14-.13-4.29-.23-6.43-.23a56.42,56.42,0,0,0-5.82.28,31.16,31.16,0,0,0-10.16,2.53,10.33,10.33,0,0,0-2.94,1.91,4.3,4.3,0,0,0-.82,3.15,17.31,17.31,0,0,0,2.47,7.22,11.45,11.45,0,0,0,5.87,5.17,36.44,36.44,0,0,0,12.71,2.28m-54.44,0a36.44,36.44,0,0,0,12.71-2.28,11.37,11.37,0,0,0,5.87-5.17,17.31,17.31,0,0,0,2.47-7.22,4.3,4.3,0,0,0-.82-3.15,10.11,10.11,0,0,0-2.95-1.91,31,31,0,0,0-10.14-2.53,56.69,56.69,0,0,0-5.82-.28c-2.15,0-4.3.1-6.45.23a78.31,78.31,0,0,0-9.89,1.09,5,5,0,0,0-1,.24c-2,.9-2.14,2.74-2,4.69.22,2.55.53,5.09,1,7.62a9.83,9.83,0,0,0,.64,2.45c1.24,2.87,4.54,4.33,7.38,5.07a35.56,35.56,0,0,0,9,1.15m54.25-25.93a55.29,55.29,0,0,0-10.36.87c-1.34.26-2.68.56-4,.85a49.93,49.93,0,0,1-10.69,1.57h-.69l-1.31,0-1.32,0h-.68a49.84,49.84,0,0,1-10.69-1.57c-1.3-.29-2.64-.59-4-.85a55.29,55.29,0,0,0-10.36-.87c-1.72,0-3.58,0-5.83.17l-1.11.06-1.18.07a118,118,0,0,0-12.16,1.43c-.7.12-1.4.25-2.09.39a3.26,3.26,0,0,0-1.85,1.11,1.7,1.7,0,0,0-.47,1.28l.26,4v.1l0,.09a2.76,2.76,0,0,0,1.05,1.48,4.59,4.59,0,0,1,1.45,2.25c.55,1.45,1,3,1.43,4.31l.19.62a22.06,22.06,0,0,0,1.88,4.67c2.05,3.42,6,5.78,11,6.65a37.63,37.63,0,0,0,6.37.44l1.74,0a53.42,53.42,0,0,0,8-.6q1.35-.22,2.55-.54a13.1,13.1,0,0,0,6.83-3.76,22.58,22.58,0,0,0,2.43-3.56,47.67,47.67,0,0,0,2.34-4.51c.35-.84.65-1.65.9-2.41.09-.29.16-.59.23-.87a5,5,0,0,1,.39-1.25,2.64,2.64,0,0,1,1.6-1.13,3,3,0,0,1,2,0,2.66,2.66,0,0,1,1.6,1.13,5,5,0,0,1,.4,1.26c.07.29.14.58.23.86.27.84.57,1.65.9,2.41a48.75,48.75,0,0,0,2.33,4.51,22,22,0,0,0,2.44,3.56,13.11,13.11,0,0,0,6.82,3.77c.8.2,1.65.38,2.55.53a53.48,53.48,0,0,0,8,.6l1.75,0a37.5,37.5,0,0,0,6.37-.44c5.07-.87,9-3.23,11-6.64a21.55,21.55,0,0,0,1.87-4.61l.22-.67c.42-1.41.88-2.89,1.42-4.34a4.63,4.63,0,0,1,1.47-2.25,2.74,2.74,0,0,0,1-1.47l0-.09v-.1l.27-4a1.58,1.58,0,0,0-.09-.61,2.59,2.59,0,0,0-2-1.69c-.69-.14-1.45-.29-2.37-.45a119,119,0,0,0-12.16-1.43l-1.19-.07L248,226.6c-2.25-.12-4.1-.17-5.83-.17Zm.19,25.07A35.25,35.25,0,0,1,230,249.28a10.58,10.58,0,0,1-5.42-4.78,16.48,16.48,0,0,1-2.36-6.85,3.64,3.64,0,0,1,.58-2.52,9.47,9.47,0,0,1,2.69-1.72,29.48,29.48,0,0,1,9.88-2.46,56.52,56.52,0,0,1,5.73-.27c1.85,0,3.87.07,6.38.22a77.6,77.6,0,0,1,9.78,1.08l.15,0a3.47,3.47,0,0,1,.67.16c1.43.63,1.62,1.84,1.45,3.83-.21,2.49-.52,5-.93,7.55a9.48,9.48,0,0,1-.58,2.24c-1.13,2.62-4.33,3.94-6.82,4.59a34.39,34.39,0,0,1-8.79,1.12Zm-54.44,0a34.39,34.39,0,0,1-8.79-1.12c-2.49-.65-5.69-2-6.82-4.58a9.28,9.28,0,0,1-.57-2.25c-.42-2.48-.73-5-.94-7.55-.17-1.95,0-3.2,1.47-3.84a4.91,4.91,0,0,1,.63-.15l.16,0a79.44,79.44,0,0,1,9.79-1.08c2.5-.15,4.54-.22,6.39-.22A56.52,56.52,0,0,1,195,231a29.8,29.8,0,0,1,9.87,2.45,9.44,9.44,0,0,1,2.7,1.74,3.68,3.68,0,0,1,.57,2.52,16.36,16.36,0,0,1-2.37,6.84,10.41,10.41,0,0,1-5.41,4.78,35.29,35.29,0,0,1-12.41,2.22Z" transform="translate(-82.1 -106.2)" style="fill:#fff"/><path d="M242.37,252.79a36.67,36.67,0,0,1-12.86-2.31,11.85,11.85,0,0,1-6.09-5.36,17.52,17.52,0,0,1-2.52-7.41,4.64,4.64,0,0,1,.94-3.47,10.69,10.69,0,0,1,3.06-2,31.26,31.26,0,0,1,10.3-2.57c1.82-.18,3.74-.27,5.86-.27,1.88,0,3.93.07,6.46.22a79.06,79.06,0,0,1,10,1.1l.12,0a4.27,4.27,0,0,1,1,.24c2.25,1,2.4,3,2.23,5.11-.21,2.54-.53,5.11-.94,7.65a11.08,11.08,0,0,1-.68,2.56c-1,2.44-3.71,4.28-7.67,5.31A36,36,0,0,1,242.37,252.79Z" transform="translate(-82.1 -106.2)" style="fill:#1d1d1b"/><path d="M241.06,229.82c2.14,0,4.29.1,6.43.23a78.26,78.26,0,0,1,9.9,1.09,4.84,4.84,0,0,1,1,.24c2,.9,2.14,2.74,2,4.69-.22,2.55-.53,5.09-1,7.62a9.83,9.83,0,0,1-.64,2.45c-1.24,2.87-4.55,4.33-7.38,5.07a35.56,35.56,0,0,1-9,1.15,36.44,36.44,0,0,1-12.71-2.28,11.45,11.45,0,0,1-5.87-5.17,17.31,17.31,0,0,1-2.47-7.22,4.3,4.3,0,0,1,.82-3.15,10.33,10.33,0,0,1,2.94-1.91,31.16,31.16,0,0,1,10.16-2.53,56.42,56.42,0,0,1,5.82-.28m0-.85h0a57.17,57.17,0,0,0-5.91.28,31.24,31.24,0,0,0-10.43,2.61,11.12,11.12,0,0,0-3.18,2.07,5.06,5.06,0,0,0-1.07,3.8,17.89,17.89,0,0,0,2.57,7.58,12.24,12.24,0,0,0,6.32,5.57,37.06,37.06,0,0,0,13,2.33,36.36,36.36,0,0,0,9.22-1.17c4.15-1.09,6.83-3,8-5.56a11.6,11.6,0,0,0,.7-2.65c.42-2.57.73-5.15.95-7.69.11-1.39.35-4.29-2.48-5.54a4.65,4.65,0,0,0-1.05-.27l-.13,0a79.7,79.7,0,0,0-10-1.1c-2.55-.16-4.61-.23-6.49-.23Z" transform="translate(-82.1 -106.2)" style="fill:#fff"/><path d="M187.93,252.79a36.09,36.09,0,0,1-9.12-1.17c-3.95-1-6.61-2.87-7.67-5.31a10.86,10.86,0,0,1-.66-2.55c-.42-2.52-.74-5.09-.95-7.66-.17-2.06,0-4.11,2.23-5.11a4.17,4.17,0,0,1,.92-.24l.15,0a78.65,78.65,0,0,1,9.95-1.1c2.53-.15,4.58-.22,6.46-.22a56.23,56.23,0,0,1,5.87.28,31.1,31.1,0,0,1,10.29,2.56,10.67,10.67,0,0,1,3.06,2,4.69,4.69,0,0,1,.94,3.47,17.43,17.43,0,0,1-2.52,7.4,11.75,11.75,0,0,1-6.09,5.37A36.67,36.67,0,0,1,187.93,252.79Z" transform="translate(-82.1 -106.2)" style="fill:#1d1d1b"/><path d="M189.25,229.82a56.69,56.69,0,0,1,5.82.28,31,31,0,0,1,10.14,2.53,10.11,10.11,0,0,1,2.95,1.91,4.3,4.3,0,0,1,.82,3.15,17.31,17.31,0,0,1-2.47,7.22,11.37,11.37,0,0,1-5.87,5.17,36.44,36.44,0,0,1-12.71,2.28,35.56,35.56,0,0,1-9-1.15c-2.84-.74-6.14-2.2-7.38-5.07a9.83,9.83,0,0,1-.64-2.45c-.42-2.53-.73-5.07-1-7.62-.16-1.95,0-3.79,2-4.69a5,5,0,0,1,1-.24,78.31,78.31,0,0,1,9.89-1.09c2.15-.13,4.3-.23,6.45-.23m0-.85h0c-1.89,0-3.95.07-6.5.23a79.65,79.65,0,0,0-10,1.1l-.14,0a5.19,5.19,0,0,0-1,.26c-2.85,1.27-2.61,4.16-2.5,5.55.22,2.58.54,5.16,1,7.69a10.75,10.75,0,0,0,.69,2.66c1.13,2.59,3.81,4.46,8,5.55a36.36,36.36,0,0,0,9.22,1.17,37.06,37.06,0,0,0,13-2.33,12.22,12.22,0,0,0,6.32-5.56,18,18,0,0,0,2.57-7.59,5.06,5.06,0,0,0-1.07-3.8,10.74,10.74,0,0,0-3.19-2.07,31.18,31.18,0,0,0-10.42-2.61,56.83,56.83,0,0,0-5.9-.28Z" transform="translate(-82.1 -106.2)" style="fill:#fff"/><circle cx="133.05" cy="153.69" r="2.33"/></g></svg>