<svg id="bea383bb-ce2b-4561-ab20-12d99ad6a3a6" data-name="Calque 1" xmlns="http://www.w3.org/2000/svg" xmlns:xlink="http://www.w3.org/1999/xlink" viewBox="0 0 473.1 508.9"><defs><linearGradient id="af672c03-49fe-43f7-ae79-b8ec991069ab" x1="261.8" y1="20.9" x2="251.74" y2="493.9" gradientUnits="userSpaceOnUse"><stop offset="0" stop-color="#cab3d8"/><stop offset="1" stop-color="#54398e"/></linearGradient><clipPath id="b33a307c-e3f8-4045-bc7c-54602fb9c3e4" transform="translate(-20.45 -10.11)"><circle cx="257" cy="246.66" r="236.55" style="opacity:0.22;fill:url(#af672c03-49fe-43f7-ae79-b8ec991069ab)"/></clipPath><clipPath id="e8f7c17f-3265-4d7f-93f5-67e33171310e" transform="translate(-20.45 -10.11)"><path d="M291.48,269.49C278.65,294.5,243.16,294,228,277c-2.14-2.4-4.19-4.87-4.89-8.14.62-2.92,1.49-3.48,4.88-2.33A101.84,101.84,0,0,0,245,270.71a86,86,0,0,0,38.49-3,23.65,23.65,0,0,1,4.65-1.24C290.29,266.27,291.78,266.91,291.48,269.49Z" style="fill:#fffefe;stroke:#411b39;stroke-miterlimit:10;stroke-width:3px"/></clipPath></defs><circle cx="236.55" cy="236.55" r="236.55" style="opacity:0.22;fill:url(#af672c03-49fe-43f7-ae79-b8ec991069ab)"/><g style="clip-path:url(#b33a307c-e3f8-4045-bc7c-54602fb9c3e4)"><path d="M67.84,158.26c1.87-9.16,8.17-15.55,18.31-18.61A14.58,14.58,0,0,0,81,128.86a2.85,2.85,0,0,0-2.26-.27c-2.65.72-4.66,0-5.75-2.33a4,4,0,0,1,1.53-5.52A4.67,4.67,0,0,1,80.93,122c.38.48.64,1.15,1.13,1.45,5.91,3.62,8.32,9.33,9.45,15.7l8.48,2.21c.43-.48,1-1.1,1.57-1.75a20.74,20.74,0,0,1,12.26-7.31,14.55,14.55,0,0,0,2.67-1,5.23,5.23,0,0,1,6.16,1.68,4.52,4.52,0,0,1-.88,5.79c-1.72,1.56-4.14,1.39-6.33-.05a4.28,4.28,0,0,0-3.22-.6c-3.19,1-5.57,3.21-7.66,6,7.25,7.18,8.66,15.78,6.75,25.49Zm20.85-5.41a4.38,4.38,0,0,0-2.62-4.93,4.19,4.19,0,0,0-4.92,2.56,4,4,0,1,0,7.54,2.37Zm14.73,3.71a3.8,3.8,0,0,0-2.7-4.72,4,4,0,0,0-4.58,2.67,4,4,0,0,0,2.9,4.91A3.72,3.72,0,0,0,103.42,156.56Z" transform="translate(-20.45 -10.11)" style="fill:#162036"/><path d="M85.29,169.49l-11,42.35c-7.32-2.87-11-8.5-13.17-15.42s-.42-13.63.94-20.63a15.74,15.74,0,0,0-1.51,1.43c-6.46,7.75-6.74,20.62-.67,29.81.88,1.33,2.08,2.54,2.56,4,.37,1.11-.16,2.51-.29,3.79-1.38-.17-2.77-.25-4.12-.55-.4-.09-.72-.74-1-1.19-8.51-13-9.83-26.16-1.38-39,2.31-3.51,6.09-6.07,9.27-9a2.39,2.39,0,0,1,1.93-.37C72.93,166.25,79,167.85,85.29,169.49Z" transform="translate(-20.45 -10.11)" style="fill:#162036"/><path d="M107.31,187.93c-1.13,3.42-2,6.93-3.45,10.25-4,9.54-11.28,14.63-21.66,15.2a11.91,11.91,0,0,1-1.58,0,4.13,4.13,0,0,1-.83-.25L90.73,171c.87.17,1.7.3,2.52.51,4.19,1.08,8.34,2.44,12.59,3.19,3.12.55,4.6,2.23,5.75,5a33,33,0,0,1-18.12,43.27c-1.83.72-3.67.94-4.51-1.15s.47-3.42,2.46-4.19c8.45-3.31,14.12-9.25,16.46-18.07A17.37,17.37,0,0,0,107.31,187.93Z" transform="translate(-20.45 -10.11)" style="fill:#162036"/><path d="M425,274.55c-.64-3-1.08-5.51-1.69-7.94-1.14-4.57-.08-8.52,3.59-11.45a5.43,5.43,0,0,0,2-6.32c-.56-2.11-.84-4.29-1.39-6.4a7.51,7.51,0,0,0-8.85-5.79c-4,.61-7.94,1.26-11.85,2.12-1.12.25-2.08,1.28-3.05,2a7.62,7.62,0,0,1-8.7.95,7.48,7.48,0,0,1-4.14-7.71,6.7,6.7,0,0,1,4.68-6.25,7.33,7.33,0,0,1,8.44,2.3c2,2.55,4.09,2.69,6.82,1.86,2.08-.62,4.25-1,6.4-1.39a13.77,13.77,0,0,1,16.52,10.77c.58,2.58,1,5.21,1.7,7.74a9.11,9.11,0,0,1-3.29,10.47c-2.87,2.22-3.25,4.63-2.22,7.79.56,1.71.78,3.53,1.26,5.78,4.23-.89,8.13-1.72,12-2.53,9.59-2,17.48,1.68,21.36,10.67,3.55,8.22,6.59,16.66,9.62,25.08,1.68,4.65.2,8.79-3.57,11.62-3.57,2.68-8,3.06-11.85.17a64,64,0,0,1-8.8-8.62c-1.58-1.77-3.05-2.39-5.39-1.84-5.13,1.23-10.32,2.3-15.52,3.23a4.92,4.92,0,0,0-4.39,4.1,80.53,80.53,0,0,1-2.88,8.83c-1.95,5.05-6.82,8.06-11.59,7.34-5.06-.75-8.59-4.51-9-10.19-.58-8.47-1.08-17-1.13-25.44a26.36,26.36,0,0,1,2.14-9.64c1.83-4.56,5.17-7.79,10.3-8.75C416.59,276.41,420.5,275.51,425,274.55Zm-10.67,25.6c.55,1.92,1,3.63,1.57,5.45l5.76-1.21c-.31-2-.59-3.75-.89-5.63l4.94-1.36-1.26-6-5.22.79-1.1-5.21-5.6,1.18c.23,1.88.43,3.55.65,5.36L407.8,295l1.23,5.85Zm26.48-6.34,6.45-1.36-1-4.83L439.82,289Zm11-8.18L450.69,280l-5.09,1.07,1.18,5.61Zm1.88,5.66,5.23-1.11c-.27-1.89-.51-3.53-.78-5.37L452.63,286ZM448.24,293l1.18,5.59,5-1.06c-.3-1.42-.53-2.64-.83-3.84a11.53,11.53,0,0,0-.68-1.67Z" transform="translate(-20.45 -10.11)"/><path d="M435,488.6c-.51,1.74-1,3.49-1.52,5.23a34.88,34.88,0,0,1-30.12,24.59c-3.2.32-6.42.52-9.63.52Q255,519,116.39,519c-21.06,0-36.13-15.11-37.19-32.12a3.94,3.94,0,0,0-.32-1c.24-5.79.75-11.53,2.78-17,2.28.62,1.46,2.55,1.53,3.95.25,4.69.49,9.41,2.4,13.75,4.43,10.07,11.51,17.15,22.75,19.29a178.63,178.63,0,0,0,17.92.49q131,.11,262.09,0c6.21,0,12.41-.2,18.61-.23,11.7-2.87,18.72-10.57,22.24-21.74a44.39,44.39,0,0,0,2.12-12.85c0-1.34-.19-2.82,1.27-3.69C434.38,474.66,435.59,481.52,435,488.6Z" transform="translate(-20.45 -10.11)" style="fill:#181d33"/><path d="M107.09,506.64c-7.06-1.32-12.47-5.29-17-10.59-5.86-6.78-7.74-14.87-7.8-23.58,0-1.2.45-2.54-.58-3.6.49-1.85.21-3.9,1.38-5.58,2.16,2.28,4.4,2.07,7.12.78,3.47-1.66,4.59-1.13,7.14,2.15,1.3,2.09,1.44,4.57,2.28,6.82a26.67,26.67,0,0,0,9.35,12,3.76,3.76,0,0,1,.13,1.7c-.25,5.14,0,10.29-.16,15.43C108.86,503.86,109,505.7,107.09,506.64Z" transform="translate(-20.45 -10.11)" style="fill:#3e287c"/><path d="M432.59,467.86c-.77,4.73-.48,9.58-1.72,14.28-3.25,12.23-9.91,21.24-22.71,24.66-2.07-.38-1.76-2.13-1.82-3.47-.18-3.72-.11-7.44-.06-11.16a42.45,42.45,0,0,0,.08-6.38c2.38-3.45,6-5.85,8-9.69,1.73-3.27,1.95-7,3.85-10.2,1.79-1.12,3,.19,4.31,1,3.81,2.43,6.73.89,7-3.63.07-1.25-.64-2.8,1.19-3.47Q431.65,463.86,432.59,467.86Z" transform="translate(-20.45 -10.11)" style="fill:#3e287a"/><path d="M96.76,466.72c-1.85-3.16-4.21-3.11-7.19-1.49-4.24,2.3-5,2-6.53-1.94,1.39-7.76,4.11-15.15,6.37-22.66.43-1.41.76-2.84,1.13-4.26,2.88-7.09,4.87-14.52,8.12-21.46,1-.6,1.78-.13,2.52.44,1.18.9,2.36,1.36,3.79.48a2,2,0,0,1,2.8.22c.88,1,.67,2.07.32,3.24-2.29,7.67-5,15.22-7.27,22.9a63.67,63.67,0,0,0-3.06,20.33C97.81,464,98,465.54,96.76,466.72Z" transform="translate(-20.45 -10.11)" style="fill:#4b3089"/><path d="M407.43,399.85c6.16,6.9,9.08,15.5,12.39,23.87,1.56,3.94,2.88,8,4.3,11.95l1.15,4.87c-.58,5.48-.58,5.48-8,7.14-1.66-.2-1.68-1.66-2.12-2.78-2.29-5.83-3.36-12-6.11-17.78a94.17,94.17,0,0,0-11.57-18.94,9.47,9.47,0,0,1-2.41-4.09c0-1.19.09-2.77,1.57-2.4,3.08.77,6.41-.2,9.32,1.45a5.56,5.56,0,0,1,3.69,3.29C409.13,404.33,406.22,402.78,407.43,399.85Z" transform="translate(-20.45 -10.11)" style="fill:#51398e"/><path d="M417.08,447.41c.38-.75,1-1.44,1.82-1.31,4.36.66,5.75-2,6.37-5.56q2.72,9.66,5.42,19.3a3.14,3.14,0,0,0-.32,3c.78,3-.91,4.94-3.08,6.21-2,1.18-4-.05-5.54-1.47-1-.87-1.87-1.69-3.28-1.49a2.84,2.84,0,0,1-1-2.12c-.32-4.89.16-9.84-1.11-14.67A1.88,1.88,0,0,1,417.08,447.41Z" transform="translate(-20.45 -10.11)" style="fill:#472b86"/><path d="M153.9,91.64c1-13.69,6.95-25.21,16-35.23A62.69,62.69,0,0,1,181.64,46c1.1,1.92-.5,3-1.43,4.16a20.39,20.39,0,0,0-4.43,10.28c-.95,8.39,4.29,14,10.92,17.49,5.33,2.79,11.23,3.58,17.06,3.62,35.53.26,71.06.17,106.59,0a39.78,39.78,0,0,0,15.54-2.75c6.83-2.93,12.24-7.34,13.1-15.45.44-4.21-1.15-7.85-3.06-11.45-.69-1.31-2.51-2.67-.49-4.36,11.9,9.74,20.65,21.56,24.37,36.73a56.32,56.32,0,0,1,1.46,13.57q-.07,42.57,0,85.14c0,1-.11,2.06-.16,3.09-3.28,1-6.38,3.27-10.08,1.5a18.13,18.13,0,0,1-.63-6.47c0-8.15-.19-16.3.14-24.45a14,14,0,0,0-.38-5.12,7.08,7.08,0,0,1-.24-1.2c-.41-8.32,1-16.61.57-24.94-.23-4.37-.2-4.42-4.5-3.22-1.85.53-3.74,1.21-5.62,0-1.2-1.39-1.36-3.13-1.62-4.82-1.29-8.34-5.95-13.37-14.32-15-8.58-1.71-17.23-2.62-25.92-3.5-11.54-1.17-23.14-1.48-34.7-1.74-11.1-.24-22.25.19-33.37.71s-22.4,2-33.58,3.16a38.1,38.1,0,0,0-10.7,2.49c-6.64,2.76-10.15,8-10.87,15.08-.14,1.47,0,3-.64,4.39-.9,1.23-2,.66-3.12.37a22.21,22.21,0,0,1-2.87-1.18c-4.17-1.76-4.18-1.76-4.56,2.65a8.11,8.11,0,0,1-.86,4c-1.37,1.88-1.82,4.89-5.41,3.9-.68-.18-1.21,1.27-1.5,2.13a15.07,15.07,0,0,0-.41,4.78c0,13.9,0,27.8,0,41.7,0,1.73.54,3.75-1.49,4.93-1-.66-.6-1.67-.6-2.53q0-45.31,0-90.64A4.5,4.5,0,0,1,153.9,91.64Z" transform="translate(-20.45 -10.11)" style="fill:#161e32"/><path d="M184.32,282.61c-5.23-7-10.06-14.15-13.29-22.29a57.71,57.71,0,0,1-2.7-7.41c-.71-2.9-1.9-3.83-5.14-3.64a34.08,34.08,0,0,1-33.7-22.4,14.29,14.29,0,0,1-.39-2c-.44-1.43-.06-2.07,1.46-1.42a9.51,9.51,0,0,1,2.67,2.14,5.83,5.83,0,0,0,4.76,1.52c2.17-.19,3.55-1,2.77-3.53a2.78,2.78,0,0,1,.1-2.64,2.4,2.4,0,0,1,3-.53,5.18,5.18,0,0,1,.85,3.6c0,4.15,2.11,6.88,5.92,7.86,4,1,8.07,1.71,12.2.85.76.06,1.19.05.93-1a19,19,0,0,1-.15-6.52c.08-.76.19-1.69,1.19-1.86.76-.12,1.25.47,1.7,1a18,18,0,0,1,1.34,2c6.17,9.7,15.07,15.5,26,18.47,12.37,3.35,23.85,1.21,34.76-5.18,3.83-2.24,6.73-5.51,9.84-8.57.91-.89,1.61-2.44,3.38-1.56.47,1.93-.67,3.3-1.72,4.64-12,15.37-30.64,22.78-50.8,16.29a61.38,61.38,0,0,1-11-4.75,11.35,11.35,0,0,0-2.3-1.35,13.8,13.8,0,0,0,.79,3.22,49.58,49.58,0,0,0,2.77,6.24A92.23,92.23,0,0,0,222,301c11.66,6.32,23.91,9.9,37.28,9.63,12.18-.25,23.35-3.88,33.8-9.74,14.52-8.15,26-19.62,34.88-33.64,4.11-6.49,6.78-13.68,9.9-21.55-11.38,6-22.7,8-34.65,6.13-5.76.34-10.3-2.94-15.08-5.3C283,244,279,240,275.79,235.25c-.76-1.1-1.82-2.18-1-3.74,2-.59,2.95,1,4,2.07a39.33,39.33,0,0,0,17.41,10.73c15.38,4.52,29.43,2,41.78-8.18a53.38,53.38,0,0,0,9.21-10.2c.57-.8.87-2.18,2.16-1.78.95.29,1,1.49,1,2.4a27.07,27.07,0,0,1-.21,6.8c.48-.78.74-1.88,2-2a16,16,0,0,0,9.64,1.36,8.77,8.77,0,0,0,8.05-7.9c.16-1.22,0-2.53.9-3.57,1.36-.39,1.95.59,2.62,1.44.54,4.48.54,4.47,5.46,4.46a40.25,40.25,0,0,1,4.11,0c1.14.11,1.7.64,1.14,1.83a32.3,32.3,0,0,1-33.2,20.12c-3-.33-4,.5-4.71,3.16A93.6,93.6,0,0,1,332,281.12c.35,1.21-1.53,1.62-1,2.89-3.14,3.79-7.18,6.74-10.05,10.78a12.21,12.21,0,0,0-3.22,1.95c-15.14,13.33-32.57,21.79-52.67,24.31a73.67,73.67,0,0,1-35.84-4.71c-13.15-5-24.57-12.82-35.17-21.93-3.26-2.81-5.72-6.36-8.71-9.43A2.35,2.35,0,0,1,184.32,282.61Z" transform="translate(-20.45 -10.11)" style="fill:#411b39"/><path d="M136.63,326.6a46.85,46.85,0,0,1,11.22-21.67c1.12-1.27,2.29-2.49,3.44-3.73,2.38.85.66,2.21.22,3.11a62.68,62.68,0,0,0-4.31,10.75,65.82,65.82,0,0,0-1.3,10,39.33,39.33,0,0,1,1.79-7.9c3.82-9.06,8.74-17.31,16.9-23.19,1.26-.9,2.35-2.27,4.21-1.77,1.81,1.49,1.52,3.06.32,4.81-2.25,3.3-4.66,6.52-6.29,10.21a24.15,24.15,0,0,0-2.35,8.54c-.06,1.1.23,2.69-1.69,2.76a2,2,0,0,1-.31-2.23c-1.67,3.69-2.7,7.45-1.74,11.48,2.49,9.91,9,16.78,16.91,22.69,8.16,6.15,16.94,11.39,25.45,17,7.91,4.79,15.48,10.11,23.13,15.29a40.29,40.29,0,0,1,5.2,4.45c1.31,1.25,2.24.84,3.34-.06,4.44,1.8,7.15,5.67,10.17,9a69.53,69.53,0,0,1,15.78,29c.49,1.81,1.34,3.7.41,5.66-1.23.62-1.95-.38-2.67-1-7.31-6.17-15.44-11.12-23.54-16.12-1.88-1.15-3.2-2.48-3.26-4.86a8.81,8.81,0,0,0-3.59-6.75c-3.32-3.43-6.87-2.81-10.5-.56a4.3,4.3,0,0,1-2.21-1.08c-7.46-5.35-15.46-9.87-23.08-15a271.15,271.15,0,0,1-24.65-18.37c0,1.95,2.32,3.86.06,5.19-1.88,1.1-3.08-1-4.34-2a64,64,0,0,1-18.34-22A44.28,44.28,0,0,1,136.63,326.6Z" transform="translate(-20.45 -10.11)" style="fill:#64509c"/><path d="M335.44,47.5c-.77,2.18,1.2,3.27,2,4.74,3.8,6.82,3.74,14.38-.46,19.65C332,78.17,325.25,81,317.39,82c-6.54.85-13.06.57-19.59.58-31.17.06-62.33.12-93.5,0-7.22,0-14.34-1.07-20.72-5.1C171.75,70,172.66,56.54,180.2,48.58c.71-.76,1.54-1.43,1.44-2.61,10.75-8.46,23.08-12.73,36.62-13.8,1.31-1.3,73.32-.69,81,.08C312.91,33.62,325.06,38.42,335.44,47.5Z" transform="translate(-20.45 -10.11)" style="fill:#272c45"/><path d="M136.63,326.6c1.8,2.88.88,6.21,1.39,9.3,1.54,9.39,6,17.2,12,24.24a59.29,59.29,0,0,0,11.59,10.71c.55.38,1,1.6,1.93.74a1.29,1.29,0,0,0-.15-2.09c-1.29-1.16-1.18-2.62-.87-4.39,4.27,3.38,8.35,6.75,12.58,9.92,9.52,7.14,19.46,13.65,29.63,19.84,2.52,1.53,4.84,3.38,7.24,5.09-1.52,2-.92,4.42-1.11,6.67-.38,4.61-1.51,5-5.5,2.72-11.38-6.45-22.43-13.47-33.68-20.14-8.69-5.14-17.58-10-25.41-16.47-1.49-1.23-3.2-2.27-4.05-4.13C133.74,355.49,132.84,341.36,136.63,326.6Z" transform="translate(-20.45 -10.11)" style="fill:#432a85"/><path d="M379.1,330.87c2,12.59,1.35,24.76-5.81,35.86a2.55,2.55,0,0,0-.54,1.9c-2.17.94-3.67,2.75-5.38,4.26-9.5,8.37-21,13.56-31.69,20.06-8.49,5.22-17.2,10.06-25.58,15.46a13.65,13.65,0,0,1-1.49.85c-2.83,1.4-3.94.79-4.25-2.42-.22-2.28,0-4.78-3.21-5.16-1.52-.23-2.65-1.29-4-1.87a8.86,8.86,0,0,0-2.33-.53c-.85-.16-2.1-.14-1.95-1.39.11-1,1.19-1.3,2.11-1.49a5.18,5.18,0,0,1,4.21,1.07,4,4,0,0,0,5.07-.13c13.15-9.38,27.61-16.85,39.83-27.57a3.7,3.7,0,0,1,2.69-1.32,1.39,1.39,0,0,1,.86.53c2.3,3.75,2.36,3.8,5.91.94,10.49-8.43,18.13-18.75,21.29-32.05.64-2.69.6-5.47,1.21-8.16.24-1.08,0-2.34,1.38-3.06C378.91,327.69,378.18,329.63,379.1,330.87Z" transform="translate(-20.45 -10.11)" style="fill:#452c86"/><path d="M384,229c-.17-.73-.45-1-1.38-1-2.7.16-5.42.12-8.13.16-2.07,0-4,0-2-2.89.45-.67.29-1.74.41-2.62-.93-1.13-.3-2.42-.38-3.64-.31-4.81-1.85-9-6.22-11.58-3.17-1.9-6.42-2.37-9.79-.46-1.4.79-3,.95-3-1.09.17-5.91-1.86-11.47-2.37-17.26l.33-.44c3.05-1.34,6.16-2.38,9.57-2.11l.26,0c.22.78-.3,1.3-.65,1.87-1.11,1.79-.27,2.48,1.48,2.75,5,.75,9.94,1.85,14.3,4.63,1.05.67,2.28.07,3.35.52C387.43,203.68,389.31,218.47,384,229Z" transform="translate(-20.45 -10.11)" style="fill:#692f49"/><path d="M141,221.21c0,.23,0,.46.07.68.39,1.82,2.67,3.63,0,5.46-2,1.42-6.36,1-8.27-.82-.84-.78-1.59-1.66-2.47-2.39s-1,.17-1.23.74c-3.86-9.21-1.43-21.77,5.6-28.95,2.66-.17,4.87-1.55,7.11-2.77,4.74-2.57,9.89-2.67,15.07-2.74,2.9,1,3.22,3.73,4.05,6.11.33,2.63-.6,5.22-.21,7.88.24,1.66-.75,2.14-2.36,2-10.31-1-14.55,2.26-16.47,12.64A4.15,4.15,0,0,1,141,221.21Z" transform="translate(-20.45 -10.11)" style="fill:#652e47"/><path d="M159,318.55c.66-8.85,4.68-16.24,10.17-22.94,1.26-1.54-1-2.11-.58-3.31a2.81,2.81,0,0,1,1.47-2.19c4.43-2.77,8.6-6,13.72-7.48a3.79,3.79,0,0,1,.58,0l9.82,11c0,1.87-1.67,2.28-2.8,3.11-8,5.86-15.54,12.2-21.42,20.28a42.88,42.88,0,0,0-6.31,11.39c-.43,1.26-.82,2.67-2.26,3.3-2.11-1.37-2.15-3.73-2.79-5.8C158,323.42,157,320.91,159,318.55Z" transform="translate(-20.45 -10.11)" style="fill:#3b2873"/><path d="M142.23,368.61c4.34,2.17,7.37,6.05,11.49,8.58,10.72,6.58,21.65,12.81,32.3,19.49,7.53,4.72,15.43,8.78,22.87,13.78,1.58-2.7,1-5.5,1.08-8.18.06-1.41.12-2.6,2-2.32l1.47,1.41c.82,5.9.29,11.8,0,17.7-1.24,2-2.37.33-3.35-.24-2.83-1.63-5.55-3.46-8.94-3.74-4.36-1.57-8.18-4.17-12.19-6.42-3.63-3.39-8.09-5.58-12.16-8.33-9.21-6.22-18.31-12.58-27.51-18.8-2.84-1.91-5.08-4.69-8.46-5.8a6.52,6.52,0,0,1-3.28-4.2C138.6,369.76,140.48,369.29,142.23,368.61Z" transform="translate(-20.45 -10.11)" style="fill:#322763"/><path d="M379.1,330.87c-1.16-.79-1.18-2.13-1.71-3.75-1,4.76-1,9.24-2.28,13.54-3.48,11.68-10.3,21-19.51,28.83a29.47,29.47,0,0,1-3.82,2.89c-3.16,1.88-3.72,1.56-4.44-2.06a7.49,7.49,0,0,0-.67-1.51c-.38-1.62,1.05-2.11,1.86-3,4.89-5.27,10.31-10.12,14-16.38a43,43,0,0,0,6.09-25.57c-.28-1.56,0-3.17-.57-4.7a89.48,89.48,0,0,0-4.27-14c-.4-1.05-1.78-2.38.17-3.4,7.26,7.24,12.71,15.53,14.74,25.76C378.92,328.6,379,329.74,379.1,330.87Z" transform="translate(-20.45 -10.11)" style="fill:#554495"/><path d="M335.6,392.21q11.63-7,23.25-13.93c4.15-2.5,7.57-5.93,11.26-9,.76-.64,1.37-2.06,2.64-.64l3.05,2.23c.62,1.88-.75,2.83-1.81,3.94-11.58,7.28-21.89,16.38-33.6,23.49-1,.59-1.84,1.4-3.07,1.47C333.08,398.5,332.67,396.69,335.6,392.21Z" transform="translate(-20.45 -10.11)" style="fill:#2b2458"/><path d="M137.53,371.54l3.28,3.43a.69.69,0,0,1,.35.82c-.61,1.23-1.86,1.66-2.91,2.33a116.34,116.34,0,0,0-28.7,25.48,12.29,12.29,0,0,1-2.67,2.67c-.55.38-1.19.88-1.85.32s-.42-1.26-.25-1.93c.36-1.43,1.66-2.48,1.69-4.05A108,108,0,0,1,132,375Z" transform="translate(-20.45 -10.11)" style="fill:#d3c1df"/><path d="M373.47,374.26c.57-1.27,2.43-1.67,2.33-3.4,1.24,2.25,3.69,2.92,5.63,4.24,9.38,6.4,18,13.61,25,22.66a3.1,3.1,0,0,1,1,2.09c1.12,2.63,2.24,5.27,3.58,8.44-2.1-1.57-3-3.55-4.94-4.34a8.51,8.51,0,0,1-2.57-2.24c-7.4-9.41-16.62-16.69-26.77-22.91C375.13,377.82,372.68,377.11,373.47,374.26Z" transform="translate(-20.45 -10.11)" style="fill:#d6c2e0"/><path d="M364,301.74c-1.06,1,.08,1.61.37,2.32,2,4.86,4,9.74,4.52,15,0,1.45-1,1.23-1.85,1.16a2.88,2.88,0,0,1-1.6-2.1c-2.84-10.53-10-17.73-18.4-24a67.64,67.64,0,0,0-13.3-8.56c-1.11-.58-2.38-.92-2.95-2.22s.55-1.65,1.22-2.27a131.32,131.32,0,0,1,19.18,10.45A93,93,0,0,1,364,301.74Z" transform="translate(-20.45 -10.11)" style="fill:#d9c4e0"/><path d="M183.74,282.63c-4.9,3.47-10.52,5.83-15.19,9.67-9.49,6-15.71,14.61-20,24.78-2.11.72-2.87.11-2.08-2.07.55-3.91,2.42-7.31,4.07-10.81.43-.9,1.81-1.68.76-3A88.6,88.6,0,0,1,174.2,285C177.17,283.54,180.27,282.23,183.74,282.63Z" transform="translate(-20.45 -10.11)" style="fill:#d3c2e0"/><path d="M160.25,196.4c-1.3-1.78-1.33-4.37-3.56-5.56-1.46-1.35-3.12-2.56-3.39-4.77q.09-44.67.2-89.34c0-1.7-.24-3.44.4-5.09,0,14.68.12,29.36.13,44,0,15.49-.06,31,0,46.47,0,1.28-.63,2.78.73,3.84,4.37-.9,7.27.47,8.37,3.95C162.51,192.25,162.77,194.94,160.25,196.4Z" transform="translate(-20.45 -10.11)" style="fill:#783b54"/><path d="M379.8,195.78c-1.1,2.05-2.42,1.42-3.88.39-4-2.85-8.74-3.82-13.51-4.54-1.39-.21-3.57.22-3.76-1.33a3.87,3.87,0,0,1,2.67-4.29C368.74,186.89,375.08,189.79,379.8,195.78Z" transform="translate(-20.45 -10.11)" style="fill:#ba8fc0"/><path d="M153.3,186.07c1.31,1.47,3.17,2.54,3.39,4.77a2.87,2.87,0,0,1-2.17.75c-6-.7-11.24,1.33-16,4.58-1.65,1.12-2.58.48-3.8-.25a22.57,22.57,0,0,1,14.91-9.21Z" transform="translate(-20.45 -10.11)" style="fill:#bd90c0"/><path d="M106.47,400.61c1.08,2.15-1.49,3.56-1,6.14,10.44-12.28,21.32-23.59,35.48-31.09.23,0,.51.1.61.28,4.58,8.39,13.14,11.85,20.66,16.56,8.86,5.54,18.38,9.93,27.2,15.55L201,414.31c8.72,2.88,8.72,2.88,8.72,12,0,5.49,0,11,0,16.46a10.29,10.29,0,0,1-.49,4c-.9,1.51-2.18,1.09-3.29.46a23.58,23.58,0,0,0-5.56-1.79c-1.93-.55-3.67-.3-4.88,1.5-.85,1.26-2,2.09-3.5,1.54-2.3-.84-4.19.05-6.28.83a41.29,41.29,0,0,1-13,2.74c-3,.11-6,1.16-9-.4-.65-.35-1.62,0-2.33.42-5.87,3.08-12.17,1.5-18.31,1.69a3.57,3.57,0,0,1-2-.42c-5-3.06-10.65-3.82-16.39-4.09a2.07,2.07,0,0,1-1.24-.53c-1.26-2.25-.63-4.71-.74-7.08-.17-3.75.24-7.52-.33-11.83-1.58,1.78-1.83,3.63-2.43,5.26-4,10.78-6.26,22-8.34,33.27-.67,4.48-1.45,8.93-2,13.41a3.65,3.65,0,0,1-1.11,2.74c-3.77-.24-5.19-3.43-7-5.9-2.56-3.53-3.53-7.8-4.71-11.94-.78-13.42,2.64-26,7.67-38.26,1.39-3.4.72-7.46,3.25-10.59.38-.46-.07-1.33-.71-1.75a.9.9,0,0,0-1.25.11c-2.49,3.57-4,.71-5.82-.8a4.62,4.62,0,0,0-1.24-.52A45.32,45.32,0,0,1,106.47,400.61Z" transform="translate(-20.45 -10.11)" style="fill:#604a99"/><path d="M407.41,491.54c0,4,0,8,0,12,0,1.12-.26,2.33.75,3.22-1.2,1-2.65.62-4,.62q-139.1.06-278.2,0c-6.28,0-12.65.79-18.88-.77,1.52-5.06.26-10.25.71-15.36.15-1.77-.63-3.68.67-5.31a2.24,2.24,0,0,1,2.31-.17A31.23,31.23,0,0,0,121,488.67c2.21.21,2.91,2,2.94,4,.06,3.1,0,6.2,0,9.3,0,1.29,0,2.57,1.4,3.23a21.09,21.09,0,0,0,4.82.26H383.3c7,0,7,0,7-6.91,0-2.63-.31-5.29.46-7.87a3,3,0,0,1,2.57-2c3.26-.23,6.22-1.47,9.3-2.35,3.46-1,4.28-.3,4.4,3.22A3,3,0,0,0,407.41,491.54Z" transform="translate(-20.45 -10.11)" style="fill:#312764"/><path d="M123.67,506.7c-1.54-3.83-.5-7.82-.64-11.72-.17-5.15,0-5.19-5-5.51-3.54-.22-6.23-2.68-9.54-3.5,0-.47,0-.94,0-1.4-.11-5.6,1.33-11,2.16-16.46,1.56-4,2.93-8.12,6.46-11,1.5-1.22,3.11-2,5-1.36,2.15.74,1.8,2.7,1.82,4.36a17.23,17.23,0,0,0,.62,3.71,66.53,66.53,0,0,1,.16,10.75c.36,9.54.13,19.08.13,28.61A4.85,4.85,0,0,1,123.67,506.7Z" transform="translate(-20.45 -10.11)" style="fill:#392876"/><path d="M417.08,447.41c1.92,6.1,1.25,12.39,1.39,18.62-1.05,7-3.7,13.07-9.16,17.74-.77.66-1.37,1.57-2.56,1.49-1.53-1.51-1.5-3.57-1.76-5.46a192.63,192.63,0,0,0-4-22.37c-1.91-9.15-3.49-18.4-7.8-26.91-1,3.44-.44,6.91-.64,10.34-.12,2,.44,4.14-.85,6-3.44-.07-6.87.48-10.34-.43a22.56,22.56,0,0,0-11.19-.36,20.81,20.81,0,0,1-8.85.5,12.55,12.55,0,0,0-8.09.83c-1.85,1-3.87.59-5.76.52-5.28-.19-10.06,1.73-15,3.16a6.38,6.38,0,0,1-6-1.06,21.9,21.9,0,0,0-10.09-4.09c-2.77-.29-5.11-1.25-6.61-3.75-.29-.49-.68-1.11-1.2-1.2-4.08-.66-3.62-3.72-3.62-6.59,0-2.64.1-5.28-.09-7.92a48.79,48.79,0,0,1,.23-7.45,4,4,0,0,1,2.1-2.58c6-3.62,12-7.19,18.5-9.77,6.88-2.88,13.3-6.62,19.82-10.19,6.14-3.36,12.05-7.08,18-10.69a7.9,7.9,0,0,1,8.17-.33c8.13,4.12,15.24,9.69,22.07,15.65.9.78,1.23,1.92,1.89,2.84,2,3.89,5.31,6.83,7.61,10.55,5,8.12,9.19,16.5,11.19,25.9A48.46,48.46,0,0,0,417.08,447.41Z" transform="translate(-20.45 -10.11)" style="fill:#614b99"/><path d="M401.91,457.08c2.71,9.21,3.52,18.74,4.84,28.18,1.06,2,.58,4.17.66,6.28-.14-.17-.37-.32-.42-.52-1.07-4.78-1.75-5.37-6.2-2.9-3,1.67-6.32.56-9.17,2.07-2.23-3.44-1-7.18-.94-10.83,1.19-5.32.26-10.73.59-16.09C391.57,458.62,397.57,455.13,401.91,457.08Z" transform="translate(-20.45 -10.11)" style="fill:#392871"/><path d="M395.68,404c-6.06-5.2-12.1-10.41-18.95-14.62a63.49,63.49,0,0,0-6.31-3.46,5.8,5.8,0,0,0-5.85.4q-17.62,11-36.12,20.43a4.4,4.4,0,0,1-2.59.67,2.18,2.18,0,0,1,1.43-2.48c3.63-1.63,6.44-4.71,10.38-5.79,12.37-7.64,23.37-17.27,35.8-24.85.14,1.91,1.69,2.57,3,3.4,8.6,5.26,16.9,10.93,23.55,18.61,2.12,2.45,4.61,4.66,6,7.68-2.87-2-6.52.56-9.49-1.66C395.82,401.72,395.81,403.26,395.68,404Z" transform="translate(-20.45 -10.11)" style="fill:#54398e"/><path d="M350.78,150.26c0,.22,0,.43,0,.65.67,2.23.23,4.47.26,6.85-1.82,0-2.21-1.32-2.69-2.36a4.49,4.49,0,0,0-4.64-2.81,38.32,38.32,0,0,0-5.14,0c-.8.13-1.75.42-2.35-.09-4.06-3.48-9-1.05-13.38-2-8.43-1.15-16.94-1.19-25.4-1.9a36.39,36.39,0,0,0-7.23,0c-3.32.39-5.87,3.07-5.72,5.84s2.35,4.68,6,5c4.33.34,8.73-.65,13,.64,1,2.12-.87,1.83-1.83,2-3.55.81-7.12,1.52-10.14,3.74a8.6,8.6,0,0,1-2.61,1.62c-9.3,4.07-15.53,11.09-19.51,20.26-1.33,3.07-1.77,3.31-4.88,1.68-4.68-2.45-9.49-2.38-14.31-.75-2.56.87-4.32.74-5.63-1.94-4.28-8.71-11.44-14.74-19.24-20.13-2.44-1.78-5.36-2.42-8.11-3.49-1-.4-2.71-.21-2.54-2.12,1.09-1.59,2.79-1.39,4.37-1.46s3.46,0,5.18,0c3.47-.16,5.81-2.18,5.89-5a6.18,6.18,0,0,0-5.37-5.83,49,49,0,0,0-10.69-.09c-7,.68-14,.61-20.9,2.14-3.51.78-6.94,1.61-9.64,4.25-3.66,3.58-4,5.79-1.36,10.12a3.67,3.67,0,0,1,.82,2.13c-1.1,1.84-3.37,2.44-5,3.71-4.86,3.89-9.2,8.19-12.09,13.82-.6,1.17-1,3.29-3.28,2.41-1.31-2.47-1.09-5.21-.71-7.72,1.15-7.65-.56-15.24-.11-22.86.12-2.05,0-4.12.91-6a45.92,45.92,0,0,1,7-8.87,10.75,10.75,0,0,0,3.34-8.3c0-3.35-1-6.87.92-10.06-.28-6.88.92-13.17,6.52-18,4.16-3.59,9.27-4.67,14.32-5.25a534.09,534.09,0,0,1,57.26-4c9.52-.07,19,.08,28.52.51,15.3.69,30.64,1.47,45.67,5.06,7.85,1.88,11.71,7.09,13.33,14.48.42,1.89.57,3.84.85,5.77,1.63,3.49.93,7.21.91,10.82a10.79,10.79,0,0,0,2.17,7C346.17,143.14,349.12,146.27,350.78,150.26Z" transform="translate(-20.45 -10.11)" style="fill:#783b54"/><path d="M163.78,150.25c-1.29,4.52-1,9.19-.55,13.69.62,6.79-.25,13.5-.13,20.25,0,1.09-.48,2.32.62,3.22.38,1.26.36,2.34-1.21,2.74-.14-2.61-2.32-2.81-4.11-3.38a34.84,34.84,0,0,0-3.68-.78c0-15.22.06-30.45,0-45.68,0-3.69-.33-7.38,3.14-9.9,1.12,1.31,2.5,3.8,3.33-.5a1.94,1.94,0,0,1,1.83-1.77,3.07,3.07,0,0,1,1.05,2.43C164.12,137.13,164.62,143.7,163.78,150.25Z" transform="translate(-20.45 -10.11)" style="fill:#1b203b"/><path d="M323.14,149.56c2.95-.51,6.07,1.61,8.95-.55a1.33,1.33,0,0,1,1.26.17c2,3.48,5.43,2.52,8.36,2.33,4.4-.3,7.76.49,8.28,6l.83-.45v-6.14c1,1.05.62,2.38.62,3.59q.06,16.81.05,33.64l0,0a1.45,1.45,0,0,1-1.95-.92c-2.72-5.56-7.1-9.81-11.25-14.23-1.42-2.34-3.76-3.57-6-4.86-.79-.56-1.88-.9-1.56-2.22,4.95-4.79,3.85-10.37-2.51-13.54C326.5,151.49,324,152,323.14,149.56Z" transform="translate(-20.45 -10.11)" style="fill:#692f49"/><path d="M163.78,150.25c-1.18-1.89-.71-4-.73-6-.05-5.36,0-10.73,0-16.09,0-9.23,0-9.23,8.47-5.8.84.35,1.71.64,2.57,1,0,3.53-.19,7.07.09,10.58a9.21,9.21,0,0,1-3.3,8.14C168.1,144.44,166.33,147.68,163.78,150.25Z" transform="translate(-20.45 -10.11)" style="fill:#29304a"/><path d="M350.78,150.26c-3.84-3.79-6.85-8.26-9.81-12.69-1.64-2.46-.06-5.82-.41-8.78a56.22,56.22,0,0,1,0-6.87A14.56,14.56,0,0,0,348.4,120c2-1.09,3-.2,3,1.59.09,6.16.31,12.34-.2,18.46C350.9,143.46,351.09,146.86,350.78,150.26Z" transform="translate(-20.45 -10.11)" style="fill:#293049"/><path d="M161.73,331.87c1.67-8.21,6.43-14.71,11.82-20.78,6-6.78,13.21-12.24,20.59-17.45,2.38,1,4.15,2.86,6.07,4.46,11.77,9.82,24.93,17,39.9,20.52a73.78,73.78,0,0,0,32.63.11c15.88-3.42,29.58-10.81,42.15-20.71a21.77,21.77,0,0,0,3-2.88,2.36,2.36,0,0,1,3-.81,4.94,4.94,0,0,1,3.52,1.14c11.43,7.85,21.21,17.2,27.54,29.78a19.81,19.81,0,0,1,1.62,5.58c-1.31,6.13-5.19,10.7-9.66,14.64-7.68,6.77-16.63,11.79-25.18,17.34-2.19,1.42-3.81.69-5.46-.94a65.25,65.25,0,0,0-12.64-9.46c-4.57-2.7-4.9-2.52-6.18,2.43-1.13,2.11-1.23,5-4.14,5.82-1.64-1.28-1.2-3.12-1.22-4.78-.08-6.66,0-13.32-.06-20,0-.26-.1-.45-.44-.69-8.95,7.93-19,13.57-31.45,13.2-12.15-.35-22.55-4.94-31.42-14.17-.31,3.18-.15,5.85-.17,8.51,0,4.6,0,9.19,0,13.78,0,1.46.23,3.05-1.19,4.12-3.8-1-3.48-4.62-4.76-7.23-.82-3.34-1-3.51-3.95-1.92-5,2.72-9.93,5.54-13.82,9.84-1.13,1.24-2.28,2.61-4.24,2.53-7.31-4.89-15.14-9-22-14.66-4.88-4-9.6-8.22-13-13.65C161.9,334.48,160.69,333.4,161.73,331.87Z" transform="translate(-20.45 -10.11)" style="fill:#161d32"/><path d="M339.08,172.38c2.14,3,5.16,5.26,7.43,8.22,1.85,2.41,2.69,5.45,5,7.52,1.57,6.09,3.64,12.09,2.49,19.22,5.4-4.07,10.24-3.33,14.51.37a13.6,13.6,0,0,1,4.39,14.9c-1,.08-1.36-.94-2.06-1.38a2.89,2.89,0,0,1-1.34-1c-2.17-2.19-3.57-2.29-5.82-.21-3,2.78-6.16,5.42-8.6,8.79-.77,1.07-1.44,2.38-2.92,2.75-1.76,1.18-.88,3.45-2.54,5.74V223.81c-6.78,10.74-15.35,17.83-26.29,21.7a36.34,36.34,0,0,1-19.26,1.34c-5.95-1.15-11.77-2.3-17.15-5.38-3.75-2.14-6.51-5.29-9.65-8.05a9,9,0,0,0-2.41-1.84c-1.12.3-1.73-.45-2.23-1.2-4.58-6.9-8-14.2-7.75-22.73.23-7.12-2.44-10.29-8.47-10.27-3.91,0-7.87,3-6.26,7.51,0,8.06-2.74,15.37-6.1,22.5-.45,1-.8,2.23-2.32,2.11-2.51,1.63-4.24,4.07-6.39,6.08-6,5.58-13.07,8.7-21.08,10.64-11.59,2.82-22.06.09-32.06-5.07a37.08,37.08,0,0,1-16-15.63c-.31-.59-.69-1.15-1.36-2.23-1,4.3-.23,8,.28,11.81-1.77,0-1.12-1.75-2.07-2.17-2.49-1.22-3.53-3.79-5.32-5.66q-3-3.11-6-6.07c-3.15-3-4.38-3.09-8-.67l-2.72.68a15.12,15.12,0,0,1,3.47-11.44c4.11-4.92,9.07-6.72,15.76-3.58-1.09-3.62-.19-6.69.06-9.79l2.26-6.25,1.21-2.74c3.2-8.42,9.58-14.16,16.52-19.4.64-.49,1.72-.41,2.59-.59a2.79,2.79,0,0,1,1.06-1.4c8.64-5,18.1-6,27.69-4.82,5,.64,9.92,2.75,14.63,4.88,8.16,5.61,15.52,12,19.73,21.23a1.63,1.63,0,0,0,2.44,1c6.57-2.72,12.91-2.49,19.27,1.87,1.54-5.84,4.77-10.42,8.52-14.71,4-4.57,9-7.56,14.54-9.85,4.48-3.13,9.81-3.84,15-4.51,7.51-1,14.84.53,21.82,3.56,1.61.7,2.79,2,4.32,2.79A48.12,48.12,0,0,1,339.08,172.38Z" transform="translate(-20.45 -10.11)" style="fill:#181e35"/><path d="M339,244.31c-1.5,6-4,11.38-6.48,16.68-5.48,11.86-14,21.46-23.7,30-11.8,10.42-25.45,17.5-41.19,19.87-22.17,3.32-41.24-4.08-58.68-17.14a91.89,91.89,0,0,1-29-36.5c-.52-1.14-1.23-2.22-1.13-3.56h0a11.65,11.65,0,0,1-2.74-6.21c-.55-1.86.11-2.81,2.09-2.77,8.85,4.51,18,7.53,28.18,7,9.31-.49,17.27-4,24.44-9.58,4.43-3.48,8.52-7.29,10.88-12.57a56,56,0,0,0,7.63-24.81,7.67,7.67,0,0,1,8.39-4.28c4.26.59,7.19,3.14,8.08,7-.09,9.21,3.52,17,9,24.14a35,35,0,0,0,10.65,12.1c4,2.82,8.49,4.29,12.62,6.63,1.65.94,3.37.37,5,.6,8.64,1.46,17.07.46,25.41-2C332.13,247.79,335.07,245.46,339,244.31Z" transform="translate(-20.45 -10.11)" style="fill:#6f314b"/><path d="M352.94,331.25c-4.44-14.51-14.64-24.44-26.41-33.1-1.83-1.36-3.78-2.55-5.68-3.82,2-4.84,6.73-7.17,9.9-10.94a56.58,56.58,0,0,1,16.67,10.16c-1.31,1.7-1.27,1.67.11,3.49,4.25,5.64,7.65,11.7,9,18.74.25,4,.43,8-.93,11.82C355.1,329.07,354.8,330.75,352.94,331.25Z" transform="translate(-20.45 -10.11)" style="fill:#3c287a"/><path d="M352.16,231.56c2.9-5.2,7.33-9.06,11.69-12.91,2.81-2.49,5.22-1.43,7,2.58.33,4.28-.4,8-4.22,10.83C363,234.7,354.87,234.63,352.16,231.56Z" transform="translate(-20.45 -10.11)" style="fill:#692f49"/><path d="M143.68,220.53c1.52-3,4.29-3.9,6.83-1.59,4.63,4.23,9.31,8.49,12.56,14-.14.72-.47,1.44-1.28,1.32-4.45-.62-9.13.08-13.33-2.05a8,8,0,0,1-4.78-8.26C143.77,222.81,143.69,221.66,143.68,220.53Z" transform="translate(-20.45 -10.11)" style="fill:#652e47"/><path d="M178.23,244.66a3.36,3.36,0,0,0-2.09,2.78c-1-1.14-.79-2.67-1.45-4.22A4.33,4.33,0,0,1,178.23,244.66Z" transform="translate(-20.45 -10.11)" style="fill:#642d48"/><path d="M290.56,360.45l3.1-6.07c1.86.38,2,2.06,2.34,3.39a49.84,49.84,0,0,1,2,15.56,6.15,6.15,0,0,1-2.76,5.18,67.62,67.62,0,0,0-10.59,9.19c-8.67,7.84-16.07,16.66-21.14,27.28-2.43,5.09-3.81,10.54-5.32,15.94-.45.53-.9,1.17-1.25-.06-3.05-17.9-12.42-32-26.34-43.24-5.3-2.72-8.76-7.66-13.44-11.12a2.62,2.62,0,0,1-.79-2.19,113.53,113.53,0,0,1,1.76-19.13c.2-1.13.5-2.33,2.1-2.16,1,2.58,1.92,5.25,3.68,7.49,1.41.46,2.12,1.71,3,2.72,9.42,10.35,21.36,13.75,34.93,12.48a40.87,40.87,0,0,0,21.58-8.33C286.1,365.33,287.56,362.11,290.56,360.45Z" transform="translate(-20.45 -10.11)" style="fill:#fff"/><path d="M256.92,430.86c.24.5.48.45.7,0a17,17,0,0,1,4.73-5.39,191,191,0,0,1,18.92-13.19c2.08-1.25,3.59-2.58,4.14-5.13.26-1.21.22-3.81,3-2.79,0,5.22,0,10.45-.21,15.67-.16,3.35-2.18,5.36-5.39,6.24-1.37.38-3,.38-3.51,2.21-.75,1.31-2.12,1.71-3.39,2.18a130.55,130.55,0,0,0-13.55,5.81,12.15,12.15,0,0,1-10.87.17c-6.31-2.7-12.53-5.55-18.64-8.65a6.71,6.71,0,0,0-3.67-2.43c-2.64-.66-3.87-2.34-3.6-5,.48-4.75-1.09-9.26-1.61-13.9a6.61,6.61,0,0,1-.29-1.08c-.11-1.5-.47-3,.74-4.33,2.4,1.75,4.23,4,4.12,7-.09,2.52,1.14,3.61,3,4.76,8.15,5,16.4,9.9,23.62,16.26C255.76,429.78,256.34,430.32,256.92,430.86Z" transform="translate(-20.45 -10.11)" style="fill:#3f287c"/><path d="M220.21,353c-2.05,1.23-.84,3.33-1.32,5-1.58,5.31-1,10.83-1.68,16.22-.17,1.36.6,1.73,1.41,2.39a100.6,100.6,0,0,1,12,11c-1.09.87.88,1.88-.38,3-9.56-8.64-20.62-15.29-31.38-22.38,0-1.69-1.5-3-1.28-4.77,2.4-1.06,3.78-3.29,5.69-4.91,4.85-4.13,10.41-7,16.29-10.06Z" transform="translate(-20.45 -10.11)" style="fill:#d0cae6"/><path d="M224.41,401.2l0,4.79c.49,14,.55,28,.52,41.94a22.91,22.91,0,0,1-.12,2.75,6.54,6.54,0,0,1-6.45,5.95c-3.26.06-6.37-2.1-6.34-5.54.08-9.95.41-19.91-.08-29.86a2,2,0,0,1,.81-1.47c0-4.8,0-9.6,0-14.41,0-1.37-.12-2.75.66-4C217.17,397.66,220.08,397.62,224.41,401.2Z" transform="translate(-20.45 -10.11)" style="fill:#cbc0e0"/><path d="M197.54,363.43c.74,1.51,3.12,2.58,1.28,4.77-12.71-8.32-26.46-15.29-36.43-27.25a26.75,26.75,0,0,1-6.29-12.81c-.52-1-.5-2,.56-2.61s2.14-.84,2.84.55c.76,1.93,1,4.06,2.23,5.79,4.08,9.1,11.8,14.77,19.48,20.41C186.52,356.18,192.5,359.12,197.54,363.43Z" transform="translate(-20.45 -10.11)" style="fill:#e6d5ea"/><path d="M159.5,326.08c-1.94-.65-3.27-.29-3.4,2.06-1.63-4.7-.6-8.85,2.59-13.09.12,1.51.2,2.5.27,3.5A23,23,0,0,0,159.5,326.08Z" transform="translate(-20.45 -10.11)" style="fill:#b39dcc"/><path d="M146.46,315c-.34,1.72,1.1,1.67,2.08,2.07q-1.15,4.91-2.3,9.81C144.54,322.85,145.3,318.92,146.46,315Z" transform="translate(-20.45 -10.11)" style="fill:#a18cc2"/><path d="M322.48,47.47c3,1.92,5,4.88,8.2,6.66,2.54,1.41,2.4,4,1.28,7-3.76,9.86-12.46,11-21,12.52-2.58.45-5.23.51-7.84.77-.84.08-1.68.34-1.65,1.37s.89,1.27,1.72,1.3c1.61.06,3.22,0,4.83.08,1,0,1.87.44,1.94,1.55.08,1.33-.87,1.86-2,1.82-2.92-.11-6,.78-8.63-1.38a2.76,2.76,0,0,0-3.54-.23c-2.54,2.1-5.31,1.81-8.35,1.78a95,95,0,0,0-14.66,1.2c-3.91.58-7.68-.44-11.59-.27-7.48.31-15,.67-22.55-.08-4.61-.46-9.3-.18-14-.3-6.88-.18-13.77.48-20.63-.62-1.88-.3-3.19-.66-3-2.79.25-2.62-1.07-3.87-3.48-4.15-5.37-.63-9.23-3.89-12.53-7.67-1.93-2.21-2-5.64-4.5-7.85-1-.89.62-2.75,1.78-2.61,3.61.42,4.37-2.68,6.11-4.47,1.11-1.14,1.76-2.72,3.59-2.94,1.61,1.12,2.31,3,3.86,4.23,2.86,2.23,3.38,2.25,5.9-.38.55-.57,1-1.19,1.56-1.79a38,38,0,0,1,5.23-3.87,40.4,40.4,0,0,1,17.95-4.18q31.38.12,62.74,0a34,34,0,0,1,15.32,3.41A28.27,28.27,0,0,1,308.22,48a37,37,0,0,1,3.87,3.07c.23.25.43.53.65.78,3.13,3.39,5.55,3,7.69-1.1C321,49.63,321,48.06,322.48,47.47Z" transform="translate(-20.45 -10.11)" style="fill:#313653"/><path d="M305.12,46.81a43.7,43.7,0,0,0-18.75-3.52c-19,.14-37.92.17-56.88,0a47.69,47.69,0,0,0-21.36,4.28c-3.32-.53-3.8-2.86-3.59-5.63,5.31-2.52,11-3.11,16.75-3.14q37.35-.18,74.7-.09c5.87,0,11.39,1.78,16.75,4.07C310.8,45.23,308,46,305.12,46.81Z" transform="translate(-20.45 -10.11)" style="fill:#cfc7e4"/><path d="M203.57,50.73c-.61,1.82-2.34,2.69-3.5,4.06-.54.64-1.2,1.07-2,.35-2.34-2-5.48-3.41-6-7a17.73,17.73,0,0,1,6.85-4.23C201.2,45.64,201.82,48.58,203.57,50.73Z" transform="translate(-20.45 -10.11)" style="fill:#5e5f8b"/><path d="M311.47,51.59,308,48.77c2.12-2.05,3.72-4.75,6.86-5.54,1.23-.07,1.82,1.1,2.82,1.48,2.57,1.46,1.51,3.13.28,4.82C315.7,52.64,314.43,53.05,311.47,51.59Z" transform="translate(-20.45 -10.11)" style="fill:#635a99"/><path d="M311.47,51.59c3.3,1.21,4.65-1.3,6.34-3.26,1.14-1.32.84-2.45-.14-3.62,1.94.34,3.21,1.83,4.81,2.76-.81,1.5-.68,3.31-1.71,4.76C317.58,56.68,315.49,56.56,311.47,51.59Z" transform="translate(-20.45 -10.11)" style="fill:#4b4c78"/><path d="M203.57,50.73c-3.07-1.24-3.54-4.27-4.72-6.82,1.8-.95,3.51-2.14,5.69-2,1.07,2,1.37,4.4,3.59,5.63Z" transform="translate(-20.45 -10.11)" style="fill:#9c96c8"/><path d="M314.85,43.23c-2.46,1.63-3.71,4.76-6.86,5.54l-2.87-2c2.08-2.22,5-2.91,7.62-4.06A2,2,0,0,1,314.85,43.23Z" transform="translate(-20.45 -10.11)" style="fill:#a89ecd"/><path d="M179.58,61.42c-.86,1.11.09,4-1.77,4s-1.66-2.67-1.89-4.26c-.19-1.27.59-2.76,1.92-2.78S179.61,59.82,179.58,61.42Z" transform="translate(-20.45 -10.11)" style="fill:#313653"/><path d="M288,403.92c-.53.87-1.51,1.74-1.51,2.62,0,4-3,5.4-5.78,7.17-8.13,5.1-16.06,10.5-23.06,17.13,3.15-17.86,12.78-31.82,26.2-43.51.93.85,1.63,1.11,2.88.13,7.59-5.95,15.62-11.31,23.57-16.77,6.54-4.49,13.38-8.49,20.09-12.69s13.43-8.84,18.93-14.82c7.47-8.12,11.87-16.93,6.47-28a54.74,54.74,0,0,0-11.64-20.9c1.09-1.43,2.39.32,3.3-.72,9.4,6.57,16.72,14.67,19.36,26.21,1.17,1.21,1.27,3.1,2.65,4.18,1.67,3.25.32,6.67-.19,9.71-1.53,9-4.95,17.3-11.65,23.89-3.73,3.67-6.78,8-10.92,11.27-10,9.46-22.15,15.81-33.35,23.54-3.12,2.15-6.3,4.2-9.41,6.35-1.6,1.1-3,1.31-4.61-.07s-3.68-2.4-5.93-.56c1.44.77,3.15-.27,4.3,1-.16.18-.3.45-.48.48-4.92.77-5.38,4.1-5.35,8.3.11,13.08-.31,26.16.05,39.24,0,1.48.09,3-.9,4.29-1.35.52-1.5-.61-1.75-1.39a13,13,0,0,1-.32-4.08q0-19.53,0-39.06C288.92,405.8,289.46,404.52,288,403.92Z" transform="translate(-20.45 -10.11)" style="fill:#63519d"/><path d="M337.67,399.11a47.09,47.09,0,0,1-8,5.47c-1.41.73-2.9,1.35-3.77,2.8-6.76,3.5-13.72,6.64-20,11-1.07,1.7-2.16,1.27-2.64-.27a10.89,10.89,0,0,0-2-3.47,49.2,49.2,0,0,1-.29-13.33c2.55-.83,4,.29,4.3,3.17.18,1.6-1,4,.87,4.62,1.59.52,3.23-1.33,4.76-2.27,8.16-5,16.26-10.16,24.73-14.66a8.94,8.94,0,0,1-.43,2.28C333.92,397.2,334.64,398.76,337.67,399.11Z" transform="translate(-20.45 -10.11)" style="fill:#332765"/><path d="M300.94,401.35c1.62,4.45.35,9.09.94,13.62,1.31,1.43,1,3.26,1,4.93.09,8,.19,16.05,0,24.08-.17,2.72.11,5.5-.94,8.13-1.65,4.16-6.6,5.68-9.86,3-1-.87-2.18-1.81-1.37-3.46q0-22.9,0-45.8c0-6.23.64-6.86,7-6.73Z" transform="translate(-20.45 -10.11)" style="fill:#c9c2e2"/><path d="M229.49,451.25a10.31,10.31,0,0,1-10,9.56c-5,.27-10.66-4-11.72-8.86a4.88,4.88,0,0,1,.8-4.55c0-8.35-.14-16.7.12-25,.11-3.36-1.23-5.05-4.15-6.07a8.26,8.26,0,0,1-3.56-2c4.74.06,8.23,2.81,11.78,5.45.62,10,.59,19.93.22,29.9-.11,2.84.8,5,3.7,5.82,2.74.74,4.94-.3,6.57-2.59.92-1.32.73-2.85.73-4.33q0-19.79.09-39.57c0-1-.3-2.06.34-3l.2.27c.49,5.8,1.22,11.58.81,17.4a5.08,5.08,0,0,1-.88,2.43c1.92-2.11,3.44-1,4.94.53,0,0,0,.07,0,.1A228.27,228.27,0,0,1,229.49,451.25Z" transform="translate(-20.45 -10.11)" style="fill:#40297d"/><path d="M189.39,408.05c-4.86-1.49-9-4.49-13.41-6.79a256.06,256.06,0,0,1-28.3-16.88,16.84,16.84,0,0,1-6.76-8.72c0-.23-.07-.46-.11-.69,4.34.78,6.9,4.38,10.23,6.68,11.84,8.2,23.73,16.32,35.81,24.16A7.72,7.72,0,0,1,189.39,408.05Z" transform="translate(-20.45 -10.11)" style="fill:#4b3189"/><path d="M369.43,323.94c-3,0-2.34-2.42-2.65-4.18.77,0,1.57.15,2.07-.66C370,320.61,369.27,322.32,369.43,323.94Z" transform="translate(-20.45 -10.11)" style="fill:#9b88bf"/><path d="M391.88,472.16c-.19.26-.39.5-.6.74h.23a12.29,12.29,0,0,1,.07,6.23c0,3.69,0,7.38,0,11.06,0,4.37-.2,8.73,0,13.09.12,2.69-.65,3.56-3.44,3.52-11.27-.16-22.53-.06-33.8-.06l-227.6,0c-1,0-2.07,0-3.1-.07q0-16.2,0-32.42,0-5.5-.08-11c-.55-3.33-.22-6.73-1-10a4.45,4.45,0,0,1,1.1-4.44c3-.32,6,.32,8.93.5,5.1.31,8.63,4.45,14.06,3.87s10.89.07,16-2.49c.4-.2,1.15-.51,1.27-.37,3.25,3.81,7.29.62,10.77.73A23.19,23.19,0,0,0,187,447.81c.39-.22.89-.83,1.11-.73,4.11,1.82,6.61-1.55,9.84-2.73,2.4-.88,5.17.6,7.57,1.7,1,.48,1.91,1.25,3.1,1.35a4.88,4.88,0,0,0-.8,4.55c1.06,4.89,6.68,9.13,11.72,8.86a10.31,10.31,0,0,0,10-9.56,228.27,228.27,0,0,0,0-24.54c1.52-1.48,2.67,0,3.92.66,6.63,3,13.28,5.91,19.88,8.94a7.77,7.77,0,0,0,6.63.08q9.56-4.12,19.08-8.3a5.57,5.57,0,0,1,6.51-1.7c2.25.93,2.07,3.38,2.09,5.44.07,5.74,0,11.48,0,17.22,0,5,2.68,8.52,6.92,9.27s8-1.93,9.61-6.62c.15-.43.22-.89.33-1.34.89-2.87-.62-5.61-.45-8.46.21-3.86-.05-7.75.11-11.63.05-1.36-.27-3.1,1.75-3.59,0,3.56,0,7.11,0,10.66,0,1.36-.06,2.66,2,2a1.51,1.51,0,0,1,2,1c1.29,4.31,5.06,4.25,8.47,5.07s7.1,1.89,9.68,4.75a1.85,1.85,0,0,0,2.14.66c2.08-1.06,4.83-.58,6.44-1.73,4.48-3.18,9.36-1.43,14-2,.66-.08,1.31.09,1.91-.35,3-2.2,6.38-1.52,9.61-1.05a15.5,15.5,0,0,0,6.07-.19c5.05-1.22,10.11-1.8,15,.78.29.15.82.33.95.2,2.56-2.51,4.9.13,7.33.27,2.32,3.67,1.5,7.82,1,11.57C391.81,462.94,392.12,467.55,391.88,472.16Z" transform="translate(-20.45 -10.11)" style="fill:#5a4595"/><path d="M229.49,451.25a10.31,10.31,0,0,1-10,9.56c-5,.27-10.66-4-11.72-8.86a4.88,4.88,0,0,1,.8-4.55c-.49,5.09,1.49,8.88,6,11.27a9.45,9.45,0,0,0,14-8.26c.12-6.53,0-13.07,0-19.61,0-1.36-.24-2.78.76-3.95l.14-.14A228.27,228.27,0,0,1,229.49,451.25Z" transform="translate(-20.45 -10.11)" style="fill:#5a4595"/><path d="M123.7,448.78l-.06,14.49c-1.11-1.16-.49-2.61-.66-3.93-.14-1,.45-2.48-1.13-2.86a3.32,3.32,0,0,0-3.51.78c-1.66,1.94-4,3.22-4.62,6.16-.35,1.71-2,3.14-3.11,4.69,1.5-8,2.89-16.1,5.33-23.93,1.42-4.56,2.91-9.11,4.35-13.67.4-1.27,1.19-2.66,2.42-2.5,1.42.19.9,1.86.91,2.93C123.68,436.88,123.68,442.83,123.7,448.78Z" transform="translate(-20.45 -10.11)" style="fill:#422982"/><path d="M391.59,479.13c0-2.08-.06-4.15-.08-6.23V446.71c0-5.39,0-10.77.07-16.16,0-.95-.39-2.35,1-2.58,1-.18,1.32,1.18,1.72,1.91,2.9,5.26,4.21,11.08,5.48,16.85.75,3.44,2.14,6.76,2.17,10.35-3.59-.75-5.91,1.86-8.67,3.3-1.28.68-1,2-1,3.08,0,4.14,0,8.27,0,12.4C392.21,477,392.54,478.19,391.59,479.13Z" transform="translate(-20.45 -10.11)" style="fill:#41287e"/><path d="M305.92,426.69c-1.22,1.64-.64,3.54-.6,5.29.1,5.45-.57,10.93.55,16.35a2.47,2.47,0,0,1-.62,2.54c-1.34-2-1.86-4.39-3.49-6.19-.35-9.91-.16-19.81.12-29.71,1.64-.09,2.07.84,2,2.28-.08,1.61.62,2,2,1.17C305.89,421.18,305.9,423.93,305.92,426.69Z" transform="translate(-20.45 -10.11)" style="fill:#432b82"/><path d="M183.72,167.12l-.9.3a7.89,7.89,0,0,0-.71-1.15c-1.47-1.79-3.87-3-3-6.06a13.24,13.24,0,0,1,6.44-8.11c3.45-2,7.37-2.53,11.2-3a176.57,176.57,0,0,1,27.77-1.57c3.35.08,5.57,2.15,6.63,5.16,1,2.85-.43,5.08-2.57,6.95-1.27,1.11-2.76.91-4.24,1-3.17.26-6.43-.71-9.53.64-.79.75-1.65.36-2.56.27-9-.93-17.81-.4-26.05,3.83C185.28,165.82,184.23,166.11,183.72,167.12Z" transform="translate(-20.45 -10.11)" style="fill:#171e36"/><path d="M323.14,149.56c3.49,1.49,7.39,2.12,10,5.37,3.25,4,2.25,9.41-2.25,11.16-1.75.36-2.95-1-4.41-1.46-5.71-2-11.47-3.7-17.64-3.43-1.65.07-3.43.5-5-.58-4.47,0-8.94,0-13.41-.05-4.32,0-7.23-2.66-7.28-6.51,0-3.24,3.37-6.61,7.12-6.5,9.82.28,19.67.21,29.42,1.82A27.84,27.84,0,0,0,323.14,149.56Z" transform="translate(-20.45 -10.11)" style="fill:#171e32"/><path d="M303.86,160.62a48.87,48.87,0,0,1,27,5.47l1.91,1.37c.22.64.09.94-.64.69-13.41-7.56-27.24-8.24-41.45-2.52,2.81-3.18,6.87-3.32,10.56-4.36C302.12,161,303,160.84,303.86,160.62Z" transform="translate(-20.45 -10.11)" style="fill:#783b54"/><path d="M183.72,167.12c.56-2.13,2.61-2.35,4.16-3.09,8.62-4.11,17.69-4.19,26.9-2.77,3.82,1.58,8.11,2.06,11.43,4.82a3.7,3.7,0,0,1-1.34-.07C211,160,197.26,160.29,183.72,167.12Z" transform="translate(-20.45 -10.11)" style="fill:#181e35"/><path d="M332.16,168.15l.64-.69a14.74,14.74,0,0,1,6.28,4.92A36.53,36.53,0,0,1,332.16,168.15Z" transform="translate(-20.45 -10.11)" style="fill:#692f49"/><path d="M290.56,360.45c-4.88,8.22-12.43,12.74-21.44,14.92-14,3.38-27.17,1.84-38.82-7.34a23,23,0,0,1-6.41-7.52c1-1.2.55-2.64.56-4,0-8.12,0-16.23,0-25.19,9,10.43,19.74,15.74,32.73,16s23.43-5.81,32.86-15.32c0,8.62,0,16.49,0,24.36C290.09,357.78,289.66,359.21,290.56,360.45Z" transform="translate(-20.45 -10.11)" style="fill:#5f2b44"/><path d="M355.76,315.17c3.91,4,4,8.84,2.81,13.71-2.56,10.26-9.72,17.16-17.86,23.2-10.87,8.07-23,14.14-34,22.08-7.61,5.5-15.34,10.85-23.07,16.3-1-1.07,1.58-2,.2-3.13a51.76,51.76,0,0,1,11-9.73c1.17-.8,2.17-1.47,2.21-3.16.15-6.91-.59-13.65-3.37-20.06.31-1.78.63-3.56,1-5.54a52,52,0,0,1,18.67,11.87c2.2,2.09,3.68,2.41,6.27.57,6.44-4.57,13.38-8.41,19.67-13.21,5.91-4.51,10.94-9.75,13.69-16.82C356.17,326.29,355.66,320.68,355.76,315.17Z" transform="translate(-20.45 -10.11)" style="fill:#d5cbe6"/><path d="M194.12,236.26c-7.33-2.46-13.52-6.49-17.94-13,.07-2.29,1.74-3.71,3-5.23,5.46-6.34,11.39-12.26,17-18.46,6.76-7.49,13.7-14.81,20.67-22.11,1.88-2,1.69-2.58-1-3.44a39.25,39.25,0,0,0-5.68-1.4c-5.11-.83-9.17.31-12.62,4.77a146.08,146.08,0,0,1-13.94,15.2c-3.88,3.75-7,8.17-10.71,12.09-1.74,1.84-.71,4.53-2.36,6.29-2.6-12.41,1-22.81,10.21-31.38,15.32-14.24,42.52-13.74,55.55,9.39.33.58.82,1.12.6,1.89-7.5,7.53-14.43,15.61-21.74,23.33-6.12,6.47-11.82,13.35-18.25,19.55A20.86,20.86,0,0,1,194.12,236.26Z" transform="translate(-20.45 -10.11)" style="fill:#dddaee"/><path d="M293.54,234.2c-7.05-3.78-12.68-8.92-15.83-16.44.34-2.21,2-3.55,3.33-5.11,6-7.12,12.4-13.86,18.75-20.66,5-5.38,10-10.73,14.94-16.21,1.6-1.78,2.23-2.86-.61-3.71a.88.88,0,0,1-.55-1.36,1.75,1.75,0,0,1,1,.1c11.6,2.37,21,7.9,26.6,18.74-1.88-.56-1.88-.56-3.29-2.16-3,4.68-7.27,8.16-10.95,12.18-9.61,10.49-19.12,21.07-29,31.3A11.91,11.91,0,0,1,293.54,234.2Z" transform="translate(-20.45 -10.11)" style="fill:#dedbef"/><path d="M293.54,234.2c3.42-4.11,7.35-7.75,10.95-11.72,10.08-11.13,20.47-22,30.72-32.94.85-.91,1.54-2,2.42-3.13l3.5,3.14c6.12,10.76,4.48,25.13-4,35.3C326.19,237.88,307.82,241.82,293.54,234.2Z" transform="translate(-20.45 -10.11)" style="fill:#fff"/><path d="M194.12,236.26a2.6,2.6,0,0,1,.89-1.79c13.39-13.3,25.51-27.79,38.63-41.35.92-1,1.69-2.25,3.3-2.22,8.8,18.57-2.84,41.21-23.79,46.11A34.07,34.07,0,0,1,194.12,236.26Z" transform="translate(-20.45 -10.11)" style="fill:#fff"/><path d="M170.58,211c-1-4.95,2.44-7.88,5.17-11,5.21-6,10.65-11.69,16-17.48a67.37,67.37,0,0,0,6-6.63,9.7,9.7,0,0,1,9.7-4.41,42.35,42.35,0,0,1,10.65,2.42c1.86.7,2.26,1.47.64,3.11-4.94,5-9.88,9.92-14.51,15.16-9.26,10.46-19.38,20.14-28.08,31.1A25.39,25.39,0,0,1,170.58,211Z" transform="translate(-20.45 -10.11)" style="fill:#fff"/><path d="M313.38,171.05a1.53,1.53,0,0,0,.29.18c5.13,1.51,5.07,1.46,1.53,5.28q-15.94,17.2-31.79,34.5c-2,2.17-3.8,4.49-5.7,6.75a18.62,18.62,0,0,1-2.27-8,7.63,7.63,0,0,1,2-7.56c9.71-10.15,19.18-20.55,29.33-30.28C308.71,170.06,311,170.19,313.38,171.05Z" transform="translate(-20.45 -10.11)" style="fill:#fefeff"/><path d="M313.38,171.05c-3-.63-5.14.43-7.26,2.67-8.61,9.07-17.45,17.92-26.11,26.94-2.4,2.51-5.15,5-4.57,9.09-2.79-11.32,3.1-25.48,13.76-33,7.63-5.4,16-7.83,25.33-5.91Z" transform="translate(-20.45 -10.11)" style="fill:#ddd9ed"/><path d="M265.83,207.44c-3.59-7.08-9.83-8.12-16.47-2.75-1.55-2.42-.53-4.56,1.19-6.16a8.66,8.66,0,0,1,9.31-1.64C265.5,199,266,200,265.83,207.44Z" transform="translate(-20.45 -10.11)" style="fill:#50233c"/><circle cx="204.85" cy="257.95" r="4.79" style="fill:#411b39"/><circle cx="268.69" cy="258.83" r="4.79" style="fill:#411b39"/><path d="M291.48,269.49C278.65,294.5,243.16,294,228,277c-2.14-2.4-4.19-4.87-4.89-8.14.62-2.92,1.49-3.48,4.88-2.33A101.84,101.84,0,0,0,245,270.71a86,86,0,0,0,38.49-3,23.65,23.65,0,0,1,4.65-1.24C290.29,266.27,291.78,266.91,291.48,269.49Z" transform="translate(-20.45 -10.11)" style="fill:#fffefe"/><g style="clip-path:url(#e8f7c17f-3265-4d7f-93f5-67e33171310e)"><path d="M220.77,272.65s20.27,7,36.19,7,36.58-7,36.58-7" transform="translate(-20.45 -10.11)" style="fill:none;stroke:#181e35;stroke-miterlimit:10"/></g><path d="M291.48,269.49C278.65,294.5,243.16,294,228,277c-2.14-2.4-4.19-4.87-4.89-8.14.62-2.92,1.49-3.48,4.88-2.33A101.84,101.84,0,0,0,245,270.71a86,86,0,0,0,38.49-3,23.65,23.65,0,0,1,4.65-1.24C290.29,266.27,291.78,266.91,291.48,269.49Z" transform="translate(-20.45 -10.11)" style="fill:none;stroke:#411b39;stroke-miterlimit:10;stroke-width:3px"/><path d="M257,252.94c-5.86,0-11.56-5.24-11.13-10.27.06-.67-.11-1.44.62-1.84.91-.49,1.48.21,2.1.7,7,5.52,10.93,5.47,17.55-.19.48-.41.92-1.31,1.63-.83a3.08,3.08,0,0,1,.82,1.82c.72,3.65-1.74,7.65-5.93,9.4A13.07,13.07,0,0,1,257,252.94Z" transform="translate(-20.45 -10.11)" style="fill:#461c35"/><path d="M264.2,232.81c-.13,1.47-.84,1.76-2.06,1a9.34,9.34,0,0,0-9.2-.63c-1,.4-1.84.36-2.37-.63s.25-1.48.78-2.06c2.72-2.9,8.82-2.92,11.65-.08A4.29,4.29,0,0,1,264.2,232.81Z" transform="translate(-20.45 -10.11)" style="fill:#b88cbd"/><path d="M301.76,444.68c2.73,1.18,3.7,3.35,3.49,6.19-.42,4.59-3.66,7.87-8.58,8.7-3.26.54-8.6-2.48-9.82-5.7a7.79,7.79,0,0,1-.23-2.7c0-6.52,0-13-.06-19.54,0-5.15-.74-5.67-5.58-4.12l-2,.59c-1-.13-1.15-.57-.43-1.27a7.46,7.46,0,0,1,3.47-1.41c4.17-1.15,5.15-2.43,5.24-6.77.1-4.92-.43-9.86.67-14.73.41-.66.81-1.68,1.68-1.33s.4,1.43.41,2.17c0,14.3,0,28.59.07,42.88,0,1.34-.37,2.77.59,4,.65,3,2.91,4,5.57,3.81s4.66-1.63,4.86-4.7C301.28,448.71,301.55,446.69,301.76,444.68Z" transform="translate(-20.45 -10.11)" style="fill:#3a2872"/><path d="M233.43,427.37c-1.37,0-2.63-.92-4.06-.52s-3.28-3.27-4.75,1.1v-21.7c1.07,4.56,2.37,9.1,1.89,13.84-.25,2.53.41,4.11,3.15,4.6A5,5,0,0,1,233.43,427.37Z" transform="translate(-20.45 -10.11)" style="fill:#312766"/><path d="M214.06,427.56c0-5.16.05-10.32,0-15.48,0-2.85,1.47-3.09,3.54-2.19,3.21,1.38,4.38,4.24,4.76,7.44.95,8.09.75,16.23.71,24.36,0,3.55-1,4.3-5,4.37-3.18.06-4.17-1.35-4-4.4.21-4.69.05-9.4.05-14.1Z" transform="translate(-20.45 -10.11)" style="fill:#fff"/><path d="M301,427.75c0,4.93-.12,9.87,0,14.8.1,3.28-2,3.35-4.28,3.49s-4.6-.12-4.55-3.23c.14-8.47-.64-17,.6-25.42a9.55,9.55,0,0,1,1.67-4.1c1.26-1.77,2.69-3.8,5.27-3s1.19,3.13,1.26,4.74c.19,4.24.07,8.49.07,12.74Z" transform="translate(-20.45 -10.11)" style="fill:#fff"/><path d="M259.06,441.9q.27,6.15.55,12.3c.07,1.51-.17,2.83-2.13,2.75-1.74-.07-1.93-1.31-1.93-2.66l.06-12.34A2.28,2.28,0,0,1,259.06,441.9Z" transform="translate(-20.45 -10.11)" style="fill:#334271"/><path d="M259.06,441.9l-3.45.05c-1.59-1.4,0-2.15.67-3,.37-.49,1.15-.69,1.45-.14C258.26,439.76,260.63,440,259.06,441.9Z" transform="translate(-20.45 -10.11)" style="fill:#b1b0d7"/><path d="M78.19,313.24h0a22.13,22.13,0,0,0-8.79-8.79h0a22.13,22.13,0,0,0,8.79-8.79h0A22.13,22.13,0,0,0,87,304.45h0a22.13,22.13,0,0,0-8.79,8.79Z" transform="translate(-20.45 -10.11)" style="fill:#60509c"/><path d="M91.44,294.26h0a22.13,22.13,0,0,0-8.79-8.79h0a22,22,0,0,0,8.79-8.78h0a22,22,0,0,0,8.79,8.78h0a22.13,22.13,0,0,0-8.79,8.79Z" transform="translate(-20.45 -10.11)" style="fill:#60509c"/><path d="M64.9,294.23h0a22.13,22.13,0,0,0-8.79-8.79h0a22.13,22.13,0,0,0,8.79-8.79h0a22.13,22.13,0,0,0,8.79,8.79h0a22.13,22.13,0,0,0-8.79,8.79Z" transform="translate(-20.45 -10.11)" style="fill:#60509c"/></g></svg>